<?xml version="1.0" standalone="no"?>
<!DOCTYPE svg PUBLIC "-//W3C//DTD SVG 20010904//EN"
 "http://www.w3.org/TR/2001/REC-SVG-20010904/DTD/svg10.dtd">
<svg version="1.0" xmlns="http://www.w3.org/2000/svg"
 width="512.000000pt" height="512.000000pt" viewBox="0 0 512.000000 512.000000"
 preserveAspectRatio="xMidYMid meet">

<g transform="translate(0.000000,512.000000) scale(0.100000,-0.100000)"
fill="#000000" stroke="none">
<path d="M2680 4659 c-279 -28 -528 -155 -684 -350 -66 -83 -146 -241 -171
-339 -14 -53 -25 -73 -62 -108 -89 -86 -127 -236 -88 -352 18 -55 91 -140 119
-140 9 0 32 -35 56 -87 68 -146 180 -276 284 -330 27 -14 28 -17 13 -28 -44
-32 -356 -120 -715 -201 l-197 -44 -19 27 c-11 16 -43 51 -71 79 -90 89 -186
107 -210 40 -8 -23 -5 -37 17 -78 15 -28 25 -55 22 -60 -7 -11 -74 -2 -176 23
-110 27 -134 25 -173 -14 -46 -46 -58 -100 -53 -232 6 -135 27 -191 85 -229
72 -48 248 -61 374 -28 62 17 69 17 105 1 158 -66 406 -57 694 26 63 19 149
47 190 64 41 17 78 31 81 31 3 0 9 -53 13 -117 3 -65 12 -147 20 -183 l14 -65
-47 -50 c-180 -193 -370 -486 -446 -687 l-17 -46 -45 34 c-112 86 -252 78
-362 -21 -65 -59 -85 -99 -84 -169 1 -114 90 -285 210 -403 176 -174 403 -215
496 -91 36 48 56 91 63 137 6 36 14 46 60 77 69 46 136 120 285 316 221 289
315 347 549 336 194 -10 300 -64 458 -237 53 -58 138 -147 189 -198 78 -80 92
-100 98 -136 25 -154 129 -223 296 -198 204 32 415 194 505 386 47 99 19 203
-77 289 -91 81 -200 96 -307 42 -28 -14 -56 -26 -61 -26 -5 0 -23 24 -39 54
-57 100 -186 261 -304 378 l-117 116 29 54 c16 29 35 80 44 113 12 50 36 232
36 281 0 8 4 14 9 14 15 0 158 -138 209 -203 48 -60 49 -65 54 -140 6 -86 27
-129 67 -135 28 -4 47 12 72 61 17 32 22 37 35 26 21 -18 49 -74 85 -175 39
-106 66 -128 144 -120 95 11 252 111 302 193 37 61 32 134 -15 226 -74 143
-160 235 -260 280 -40 18 -59 35 -92 85 -79 119 -271 273 -485 391 l-113 62
-7 46 c-3 25 -17 78 -31 119 l-24 74 39 55 c21 30 44 68 51 85 10 24 17 29 36
24 13 -4 35 1 54 12 93 55 153 245 131 410 -17 120 -52 174 -112 174 -25 0
-27 3 -33 65 -20 195 -109 377 -246 501 -174 159 -465 241 -750 213z m230 -49
c359 -41 595 -221 689 -524 11 -37 21 -70 21 -73 0 -2 -27 31 -59 74 -132 175
-346 309 -599 375 -109 29 -129 31 -297 32 -158 1 -190 -2 -265 -22 -103 -29
-188 -64 -254 -106 -81 -51 -84 -51 -26 5 193 184 489 274 790 239z m-12 -184
c166 -36 329 -108 446 -196 31 -23 56 -44 56 -46 0 -1 -33 13 -73 31 -146 68
-244 93 -500 131 -339 49 -649 -43 -869 -260 -38 -36 -68 -63 -68 -60 0 3 14
33 32 66 89 166 326 305 596 348 80 13 293 5 380 -14z m-91 -131 c157 -30 313
-97 453 -196 92 -65 230 -201 294 -291 l47 -67 -10 -57 c-6 -32 -11 -108 -11
-170 l0 -113 -49 -59 c-90 -108 -245 -228 -328 -252 -36 -11 -66 -9 -220 14
-317 47 -543 56 -831 35 l-147 -11 -27 33 c-112 134 -177 386 -148 574 23 153
82 256 198 350 224 181 516 260 779 210z m951 -515 c54 -107 9 -366 -77 -444
-20 -18 -23 -18 -38 -3 -34 34 -26 309 12 418 18 51 43 81 64 77 9 -2 26 -23
39 -48z m-1977 -48 c-9 -84 -5 -199 9 -264 9 -44 2 -47 -28 -15 -49 52 -70
177 -42 252 15 41 61 118 66 112 2 -2 0 -41 -5 -85z m889 -642 c69 -5 206 -22
305 -36 140 -20 189 -24 222 -17 24 6 43 9 43 7 0 -8 -101 -54 -153 -69 -53
-15 -65 -15 -155 -1 -226 36 -267 39 -532 40 l-275 1 -37 30 c-21 17 -38 33
-38 37 0 15 454 21 620 8z m830 -110 c7 -33 11 -63 8 -65 -6 -7 -91 27 -100
40 -16 21 -7 50 24 82 40 41 49 33 68 -57z m-690 -41 c91 -11 171 -24 180 -29
29 -16 -64 -25 -265 -25 -152 0 -219 4 -280 17 -127 28 -186 48 -179 60 11 17
347 3 544 -23z m549 -34 c32 -8 82 -25 112 -38 l53 -24 -29 -16 c-60 -31 -124
-126 -125 -184 0 -20 -3 -21 -28 -12 -15 5 -40 21 -54 34 -26 24 -27 28 -26
140 1 132 -4 127 97 100z m-147 -382 c-3 -384 -3 -388 -25 -412 -26 -28 -102
-63 -189 -88 -145 -40 -431 -11 -513 51 -69 53 -105 204 -105 437 0 137 16
329 29 342 4 4 28 3 52 -3 24 -6 118 -13 209 -17 187 -6 338 10 463 51 40 13
74 24 77 25 3 1 4 -173 2 -386z m-879 356 c37 -8 47 -14 43 -27 -3 -10 -10
-66 -16 -127 -25 -273 3 -535 68 -630 37 -54 113 -90 232 -111 165 -28 341 -8
475 56 33 16 62 27 64 24 3 -2 1 -16 -5 -31 -12 -35 -103 -84 -219 -119 -108
-32 -318 -44 -431 -25 -207 35 -302 104 -338 243 -24 94 -40 366 -27 462 14
95 51 287 58 299 3 5 15 6 27 3 11 -4 43 -11 69 -17z m-185 -140 l-23 -132
-44 -29 c-52 -33 -91 -37 -91 -10 0 46 -35 117 -80 161 l-47 46 151 50 c83 28
152 50 154 49 2 -1 -7 -62 -20 -135z m-1102 65 c48 -23 132 -119 163 -184 19
-42 25 -71 24 -120 -1 -180 -117 -260 -376 -260 -192 1 -241 51 -242 250 0
106 15 163 50 186 21 14 31 13 106 -6 107 -27 208 -36 237 -21 30 16 28 57 -3
103 -44 65 -28 85 41 52z m2599 -15 c33 -18 100 -58 150 -90 87 -56 88 -58 60
-64 -70 -16 -100 -29 -137 -63 -54 -49 -72 -86 -78 -164 l-5 -68 -94 63 c-125
82 -136 98 -136 195 0 66 4 84 27 123 34 57 87 97 133 98 11 1 47 -13 80 -30z
m-1801 -43 c38 -16 91 -90 107 -150 6 -22 9 -70 7 -106 -7 -113 -59 -187 -151
-214 -45 -13 -245 -56 -261 -56 -3 0 14 20 38 44 60 59 78 98 84 178 6 93 -11
148 -66 209 -24 27 -43 51 -41 53 5 4 219 54 237 55 7 1 27 -5 46 -13z m-286
-91 c17 -14 42 -49 56 -77 l26 -52 -29 -50 c-52 -94 -175 -164 -268 -153 -63
7 -86 32 -73 77 13 47 13 159 -1 199 -6 18 -9 34 -7 37 10 10 175 42 220 43
36 1 53 -5 76 -24z m2443 -111 c33 -32 81 -86 106 -119 l45 -60 -36 -7 c-45
-10 -90 -32 -137 -69 -43 -34 -69 -36 -124 -10 -77 35 -126 106 -140 202 -6
43 -5 47 27 74 51 43 87 56 146 52 50 -4 57 -8 113 -63z m-491 -188 c0 -52
-24 -253 -35 -298 -18 -71 -54 -148 -69 -148 -6 0 -26 13 -45 29 l-34 28 11
94 c7 51 26 153 43 226 l31 133 49 -27 c27 -14 49 -31 49 -37z m746 -56 c60
-29 139 -113 190 -200 105 -179 97 -229 -51 -335 -100 -71 -195 -95 -227 -57
-8 9 -25 46 -38 82 -47 134 -98 210 -140 210 -14 0 -30 -15 -48 -45 -15 -24
-33 -45 -40 -45 -18 0 -32 44 -32 103 0 72 35 140 103 205 102 95 198 123 283
82z m-1007 -381 c-27 -52 -189 -144 -316 -181 -68 -20 -100 -23 -253 -22 -164
0 -183 2 -295 32 -117 31 -246 86 -252 108 -2 6 5 22 16 35 l20 24 33 -31 c45
-43 84 -61 180 -83 116 -27 235 -34 358 -22 201 21 356 74 441 150 40 36 46
38 61 24 13 -12 15 -20 7 -34z m81 -21 c14 -13 57 -49 97 -81 107 -87 106 -81
7 -106 -118 -30 -156 -51 -249 -141 -44 -43 -94 -85 -112 -94 -39 -20 -107
-20 -193 -1 -36 8 -92 14 -125 14 -33 0 -89 -6 -125 -14 -150 -33 -195 -20
-285 82 -71 80 -135 107 -269 113 l-109 5 61 76 62 77 91 -39 c241 -104 525
-134 745 -79 106 27 247 98 314 159 30 28 57 50 60 51 3 0 16 -10 30 -22z
m294 -270 c50 -55 126 -151 126 -160 0 -3 -23 -8 -51 -11 -70 -9 -130 -40
-198 -103 -56 -52 -111 -139 -125 -197 -7 -28 -8 -27 -101 70 -110 115 -112
123 -61 228 51 108 174 213 271 235 49 11 87 -6 139 -62z m-1451 -31 c107 -49
180 -158 181 -273 l1 -61 -80 -105 -80 -104 -16 66 c-26 113 -93 202 -189 252
-36 19 -61 23 -127 23 l-82 0 31 55 c44 78 94 145 121 163 48 31 153 24 240
-16z m1614 -181 c13 -12 76 -127 71 -130 -2 -1 -38 -30 -81 -65 -84 -68 -139
-91 -219 -91 -59 0 -93 28 -104 84 -6 34 -2 41 42 93 91 103 240 160 291 109z
m-1824 -71 c29 -13 66 -38 82 -55 28 -30 30 -36 30 -115 0 -76 -2 -87 -30
-126 -34 -49 -97 -84 -165 -93 -43 -6 -46 -5 -70 31 -14 20 -48 65 -77 99
l-52 61 14 47 c21 69 62 140 93 159 40 25 114 21 175 -8z m2234 -41 c56 -32
61 -44 21 -44 -85 0 -243 -62 -358 -140 -88 -60 -197 -166 -231 -225 l-29 -50
0 48 c0 26 7 63 15 82 27 67 249 267 355 321 96 49 154 51 227 8z m-2669 -100
c65 -32 183 -156 262 -276 76 -116 94 -163 86 -222 -7 -45 -26 -74 -26 -39 0
31 -48 123 -100 192 -110 148 -253 264 -380 307 l-65 22 45 21 c61 28 115 27
178 -5z m2746 -11 c14 -9 -3 -85 -34 -149 -51 -105 -191 -227 -312 -272 -29
-11 -77 -16 -144 -17 -86 0 -105 3 -123 19 -19 17 -19 21 -5 55 37 89 152 203
285 282 129 77 279 113 333 82z m-2845 -110 c52 -26 99 -61 157 -118 72 -70
84 -87 98 -137 23 -81 21 -163 -4 -188 -61 -61 -161 -32 -311 88 -73 58 -89
77 -123 144 -60 120 -59 209 3 243 37 21 93 11 180 -32z"/>
<path d="M2996 2759 c-55 -65 -13 -149 73 -149 48 0 73 26 73 75 0 90 -93 138
-146 74z"/>
<path d="M2589 2755 c-83 -26 -84 -27 -87 -279 -6 -333 -2 -341 175 -334 124
5 168 21 177 65 14 67 35 453 27 476 -28 72 -174 108 -292 72z m220 -39 c52
-27 53 -35 36 -278 -20 -279 -9 -263 -172 -263 -115 0 -118 1 -130 25 -10 19
-13 79 -11 245 3 246 8 265 71 284 44 14 168 6 206 -13z"/>
<path d="M2999 2521 c-60 -61 -19 -151 70 -151 47 0 73 26 73 73 0 45 -16 73
-52 92 -41 21 -58 19 -91 -14z m88 -23 c33 -36 37 -64 13 -88 -15 -15 -28 -19
-43 -14 -54 16 -72 59 -41 102 19 28 45 28 71 0z"/>
<path d="M3019 2296 c-52 -25 -64 -103 -24 -140 76 -70 176 -14 145 80 -17 51
-78 82 -121 60z m63 -36 c34 -26 41 -67 16 -92 -13 -13 -26 -17 -41 -12 -56
17 -74 67 -37 104 25 25 31 25 62 0z"/>
</g>
</svg>
