<svg id="eaXrMD4k59q1" xmlns="http://www.w3.org/2000/svg" xmlns:xlink="http://www.w3.org/1999/xlink" viewBox="0 0 270 585" shape-rendering="geometricPrecision" text-rendering="geometricPrecision"><defs><radialGradient id="eaXrMD4k59q3-fill" cx="0" cy="0" r="12.289" spreadMethod="pad" gradientUnits="userSpaceOnUse" gradientTransform="matrix(1.644 0 0 0.60828 24.850704 38.90863)"><stop id="eaXrMD4k59q3-fill-0" offset="0%" stop-color="#000"/><stop id="eaXrMD4k59q3-fill-1" offset="100%" stop-color="rgba(0,0,0,0)"/></radialGradient><radialGradient id="eaXrMD4k59q4-fill" cx="0" cy="0" r="29.993" spreadMethod="pad" gradientUnits="userSpaceOnUse" gradientTransform="matrix(0.67497 0 0 0.67498 20.181553 14.197786)"><stop id="eaXrMD4k59q4-fill-0" offset="0%" stop-color="#d3e9ff"/><stop id="eaXrMD4k59q4-fill-1" offset="15.517%" stop-color="#d3e9ff"/><stop id="eaXrMD4k59q4-fill-2" offset="75%" stop-color="#4074ae"/><stop id="eaXrMD4k59q4-fill-3" offset="100%" stop-color="#36486c"/></radialGradient><radialGradient id="eaXrMD4k59q5-fill" cx="0" cy="0" r="32.665" spreadMethod="pad" gradientUnits="userSpaceOnUse" gradientTransform="matrix(1.1795 0 0 0.84779 13.949947 8.881448)"><stop id="eaXrMD4k59q5-fill-0" offset="0%" stop-color="#fff"/><stop id="eaXrMD4k59q5-fill-1" offset="100%" stop-color="rgba(255,255,255,0)"/></radialGradient><radialGradient id="eaXrMD4k59q40-fill" cx="0" cy="0" r="40.693" spreadMethod="pad" gradientUnits="userSpaceOnUse" gradientTransform="matrix(1.0368 0 0 0.96449 19.319731 16.865072)"/><radialGradient id="eaXrMD4k59q43-fill" cx="0" cy="0" r="40.693" spreadMethod="pad" gradientUnits="userSpaceOnUse" gradientTransform="matrix(1.0368 0 0 0.96449 19.319731 16.865072)"/><radialGradient id="eaXrMD4k59q46-fill" cx="0" cy="0" r="40.693" spreadMethod="pad" gradientUnits="userSpaceOnUse" gradientTransform="matrix(1.0368 0 0 0.96449 19.319731 16.865072)"/><radialGradient id="eaXrMD4k59q49-fill" cx="0" cy="0" r="40.693" spreadMethod="pad" gradientUnits="userSpaceOnUse" gradientTransform="matrix(1.0368 0 0 0.96449 19.319731 16.865072)"/><radialGradient id="eaXrMD4k59q52-fill" cx="0" cy="0" r="40.693" spreadMethod="pad" gradientUnits="userSpaceOnUse" gradientTransform="matrix(1.0368 0 0 0.96449 19.319731 16.865072)"/><radialGradient id="eaXrMD4k59q55-fill" cx="0" cy="0" r="40.693" spreadMethod="pad" gradientUnits="userSpaceOnUse" gradientTransform="matrix(1.0368 0 0 0.96449 19.319731 16.865072)"/><radialGradient id="eaXrMD4k59q58-fill" cx="0" cy="0" r="40.693" spreadMethod="pad" gradientUnits="userSpaceOnUse" gradientTransform="matrix(1.0368 0 0 0.96449 19.319731 16.865072)"/><radialGradient id="eaXrMD4k59q61-fill" cx="0" cy="0" r="40.693" spreadMethod="pad" gradientUnits="userSpaceOnUse" gradientTransform="matrix(1.0368 0 0 0.96449 19.319731 16.865072)"/><radialGradient id="eaXrMD4k59q64-fill" cx="0" cy="0" r="40.693" spreadMethod="pad" gradientUnits="userSpaceOnUse" gradientTransform="matrix(1.0368 0 0 0.96449 19.319731 16.865072)"/><radialGradient id="eaXrMD4k59q67-fill" cx="0" cy="0" r="40.693" spreadMethod="pad" gradientUnits="userSpaceOnUse" gradientTransform="matrix(1.0368 0 0 0.96449 19.319731 16.865072)"/><radialGradient id="eaXrMD4k59q68-stroke" cx="0" cy="0" r="43.527" spreadMethod="pad" gradientUnits="userSpaceOnUse" gradientTransform="matrix(0.67497 0 0 0.67498 18.394907 11.785407)"><stop id="eaXrMD4k59q68-stroke-0" offset="0%" stop-color="#fff"/><stop id="eaXrMD4k59q68-stroke-1" offset="100%" stop-color="rgba(255,255,255,0.16495)"/></radialGradient></defs><g id="eaXrMD4k59q2" transform="matrix(7.913335 0 0 7.649523-50.506042 265.377026)"><path id="eaXrMD4k59q3" d="M45.053,38.909c0,4.1284-9.0452,7.4751-20.203,7.4751s-20.203-3.3467-20.203-7.4751s9.0452-7.4751,20.203-7.4751s20.203,3.3467,20.203,7.4751Z" transform="matrix(.759321 0.01325 0.015323 0.87785 5.7745 4.6058)" opacity="0" fill="url(#eaXrMD4k59q3-fill)"/><path id="eaXrMD4k59q4" d="M37.536,19.442c0,7.2288-5.8602,13.089-13.088,13.089-7.2284,0-13.088-5.8602-13.088-13.089c0-7.2284,5.8599-13.088,13.088-13.088c7.2278,0,13.088,5.8595,13.088,13.088Z" fill="url(#eaXrMD4k59q4-fill)" stroke="#39396c" stroke-width="2"/><path d="M30.709,15.271c0,5.1326-5.7889,9.2934-12.93,9.2934-7.141,0-12.93-4.1608-12.93-9.2934s5.7889-9.2934,12.93-9.2934s12.93,4.1608,12.93,9.2934Z" transform="matrix(.56424 0 0 0.67497 14.538 3.5898)" opacity="0.42159" fill="url(#eaXrMD4k59q5-fill)"/><g transform="matrix(.66308 0 0 0.66308 7.9464 3.747)"><g><g><path d="M44.071,20.714v0l-.5449.6172c-.334-.3936-.709-.7246-1.0898-1.0703l-.8359.123-.7637-.8633v1.0684l.6543.4951.4355.4932.582-.6582c.1465.2744.291.5488.4365.8232v.8223l-.6553.7402-1.1992.8232-.9082.9063-.582-.6602.291-.7402-.5811-.6582-.9814-2.0977-.8359-.9453-.2188.2461.3281,1.1934.6172.6992c.3525,1.0176.7012,1.9902,1.1641,2.9629.7178,0,1.3945-.0762,2.1074-.166v.5762l-.8721,2.1392-.7998.9043-.6543,1.4004v2.3027l.2188.9063-.3633.4102-.8008.4941-.8359.6992.6914.7813-.9453.8242.1816.5332-1.418,1.6055h-.9443l-.7998.4941h-.5098v-.6582l-.2168-1.3184c-.2813-.8262-.5742-1.6465-.8721-2.4668c0-.6055.0361-1.2051.0723-1.8105l.3643-.8223-.5098-.9883.0371-1.3574-.6914-.7813.3457-1.1309-.5625-.6382h-.9824l-.3271-.3701-.9814.6177-.3994-.4536-.9092.7817c-.6172-.6997-1.2354-1.3989-1.8535-2.0981l-.7266-1.7285.6543-.9863-.3633-.4111.7988-1.8936c.6563-.8164,1.3418-1.5996,2.0352-2.3857l1.2363-.3291l1.3809-.1641.9453.2471l1.3447,1.3564.4727-.5342.6533-.082l1.2363.4111h.9453l.6543-.5762.291-.4111-.6553-.4111-1.0908-.082c-.3027-.4199-.584-.8613-.9434-1.2344l-.3643.1641-.1455,1.0703-.6543-.7402-.1445-.8242-.7266-.5742h-.292l.7275.8223-.291.7402-.5811.1641.3633-.7402-.6553-.3281-.5801-.6582-1.0918.2461-.1445.3281-.6543.4121-.3633.9053-.9082.4521-.4004-.4521h-.4355v-1.4814l.9453-.4941h.7266l-.1465-.5752-.5801-.5762.9805-.2061.5449-.6162.4355-.7412h.8008l-.2188-.5752.5098-.3291v.6582l1.0898.2461l1.0898-.9043.0732-.4121.9443-.6577c-.3418.0425-.6836.0737-1.0176.1646v-.7411l.3633-.8228h-.3633l-.7984.7402-.2188.4116.2188.5767-.3643.9863-.5811-.3291-.5078-.5752-.8008.5752-.291-1.3159l1.3809-.9048v-.4941l.873-.5757l1.3809-.3296.9453.3296l1.7441.3291-.4355.4932h-.9453l.9453.9873.7266-.8223.2207-.3618c0,0,2.7871,2.498,4.3799,5.2305c1.5928,2.7334,2.3408,5.9551,2.3408,6.6094Z" fill-opacity="0.71345"/></g></g><g><g><path d="M26.07,9.2363l-.0732.4932.5098.3291.8711-.5757-.4355-.4937-.582.3296-.29-.0825" fill-opacity="0.71345"/></g></g><g><g><path d="M26.87,5.8633l-1.8906-.7407-2.1797.2466-2.6904.7402-.5088.4941l1.6719,1.1514v.6582l-.6543.6582.873,1.729.5801-.3301.7285-1.1514c1.123-.3472,2.1299-.7407,3.1973-1.2344l.873-2.2212" fill-opacity="0.71345"/></g></g><g><g><path d="M28.833,12.775l-.291-.7412-.5098.165.1465.9043.6543-.3281" fill-opacity="0.71345"/></g></g><g><g><path d="M29.123,12.609l-.1455.9883.7998-.165.5811-.5752-.5088-.4941c-.171-.455-.368-.88-.582-1.317h-.4355v.4932l.29.3291v.7402" fill-opacity="0.71345"/></g></g><g><g><path d="M18.365,28.242l-.582-1.1523-1.0903-.2466-.5815-1.5625-1.4536.1641-1.2354-.9043-1.3091,1.1514v.1816c-.396-.1143-.8828-.1299-1.2354-.3467l-.291-.8223v-.9053l-.8721.082c.0728-.5762.145-1.1514.2183-1.7275h-.5093l-.5083.6582-.5093.2461-.7271-.4102-.0728-.9053.1455-.9873l1.0908-.8223h.8721l.145-.4941l1.0903.2461.7998.9883.1455-1.6465l1.3813-1.1514.5088-1.2344l1.0176-.4111.5815-.8223l1.3081-.248.6548-.9863h-1.9629l1.2358-.5762h.8716l1.2363-.4121.1455-.4922-.4365-.4121-.5088-.165.1455-.4932-.3633-.7402-.8726.3281.1455-.6577-1.0176-.5762-.7993,1.3979.0723.4941-.7993.3301-.5093,1.0693-.2178-.9873-1.3813-.5762-.2183-.7402l1.8174-1.0703.7998-.7402.0728-.9048-.436-.2471-.5815-.0825-.3633.9053c0,0-.6079.1191-.7642.1577-1.9961,1.8394-6.0293,5.8101-6.9663,13.306.0371.1738.6792,1.1816.6792,1.1816l1.5264.9043l1.5264.4121.6548.8232l1.0171.7402.5815-.082.436.1963v.1328l-.5811,1.563-.4365.6582.1455.3301-.3633,1.2324L12.186,32.767l1.3081,1.1523.582.8223-.0732,1.7285.4365.9863-.4365,1.8926c0,0-.0342-.0117.0215.1777.0562.1895,2.3291,1.4512,2.4736,1.3438.144-.1094.2671-.2051.2671-.2051l-.145-.4102.5811-.5762.2183-.5762.9453-.3301.7266-1.8105-.2178-.4922.5078-.7402l1.0908-.248.582-1.3164-.1455-1.6445.8721-1.2344.1455-1.2344c-1.194-.59-2.377-1.2-3.562-1.809" fill-opacity="0.71345"/></g></g><g><g><path d="M16.766,9.5649l.7266.4937h.582v-.5757l-.7266-.3291-.582.4111" fill-opacity="0.71345"/></g></g><g><g><path d="M14.876,8.9072l-.3638.9048h.7271l.3638-.8228c.314-.2217.626-.4448.945-.6582l.7271.2471c.4844.3291.9688.6582,1.4536.9868l.727-.6577-.8-.3291-.364-.7407-1.381-.1646-.073-.4116-.654.165-.29.5758-.364-.7407-.145.3291.0728.8228-.5816.494" fill-opacity="0.71345"/></g></g><g><g><path d="M17.492,6.8496l.364-.3286.727-.1646c.498-.2422.998-.4053,1.5264-.5762l-.29-.4937-.9385.1348-.4434.4419-.731.106-.6499.3052-.3159.1528-.1929.2583.9443.1641" fill-opacity="0.71345"/></g></g><g><g><path d="M18.728,14.666l.4365-.6582-.6548-.4932.2183,1.1514" fill-opacity="0.71345"/></g></g></g><g transform="matrix(.66308 0 0 0.66308 7.8101 3.6107)"><g><g><path d="M44.071,20.714v0l-.5449.6172c-.334-.3936-.709-.7246-1.0898-1.0703l-.8359.123-.7637-.8633v1.0684l.6543.4951.4355.4932.582-.6582c.1465.2744.291.5488.4365.8232v.8223l-.6553.7402-1.1992.8232-.9082.9063-.582-.6602.291-.7402-.5811-.6582-.9814-2.0977-.8359-.9453-.2188.2461.3281,1.1934.6172.6992c.3525,1.0176.7012,1.9902,1.1641,2.9629.7178,0,1.3945-.0762,2.1074-.166v.5762l-.8721,2.1392-.7998.9043-.6543,1.4004v2.3027l.2188.9063-.3633.4102-.8008.4941-.8359.6992.6914.7813-.9453.8242.1816.5332-1.418,1.6055h-.9443l-.7998.4941h-.5098v-.6582l-.2168-1.3184c-.2813-.8262-.5742-1.6465-.8721-2.4668c0-.6055.0361-1.2051.0723-1.8105l.3643-.8223-.5098-.9883.0371-1.3574-.6914-.7813.3457-1.1309-.5625-.6382h-.9824l-.3271-.3701-.9814.6177-.3994-.4536-.9092.7817c-.6172-.6997-1.2354-1.3989-1.8535-2.0981l-.7266-1.7285.6543-.9863-.3633-.4111.7988-1.8936c.6563-.8164,1.3418-1.5996,2.0352-2.3857l1.2363-.3291l1.3809-.1641.9453.2471l1.3447,1.3564.4727-.5342.6533-.082l1.2363.4111h.9453l.6543-.5762.291-.4111-.6553-.4111-1.0908-.082c-.3027-.4199-.584-.8613-.9434-1.2344l-.3643.1641-.1455,1.0703-.6543-.7402-.1445-.8242-.7266-.5742h-.292l.7275.8223-.291.7402-.5811.1641.3633-.7402-.6553-.3281-.5801-.6582-1.0918.2461-.1445.3281-.6543.4121-.3633.9053-.9082.4521-.4004-.4521h-.4355v-1.4814l.9453-.4941h.7266l-.1465-.5752-.5801-.5762.9805-.2061.5449-.6162.4355-.7412h.8008l-.2188-.5752.5098-.3291v.6582l1.0898.2461l1.0898-.9043.0732-.4121.9443-.6577c-.3418.0425-.6836.0737-1.0176.1646v-.7411l.3633-.8228h-.3633l-.7984.7402-.2188.4116.2188.5767-.3643.9863-.5811-.3291-.5078-.5752-.8008.5752-.291-1.3159l1.3809-.9048v-.4941l.873-.5757l1.3809-.3296.9453.3296l1.7441.3291-.4355.4932h-.9453l.9453.9873.7266-.8223.2207-.3618c0,0,2.7871,2.498,4.3799,5.2305c1.5928,2.7334,2.3408,5.9551,2.3408,6.6094Z" fill="url(#eaXrMD4k59q40-fill)"/></g></g><g><g><path d="M26.07,9.2363l-.0732.4932.5098.3291.8711-.5757-.4355-.4937-.582.3296-.29-.0825" fill="url(#eaXrMD4k59q43-fill)"/></g></g><g><g><path d="M26.87,5.8633l-1.8906-.7407-2.1797.2466-2.6904.7402-.5088.4941l1.6719,1.1514v.6582l-.6543.6582.873,1.729.5801-.3301.7285-1.1514c1.123-.3472,2.1299-.7407,3.1973-1.2344l.873-2.2212" fill="url(#eaXrMD4k59q46-fill)"/></g></g><g><g><path d="M28.833,12.775l-.291-.7412-.5098.165.1465.9043.6543-.3281" fill="url(#eaXrMD4k59q49-fill)"/></g></g><g><g><path d="M29.123,12.609l-.1455.9883.7998-.165.5811-.5752-.5088-.4941c-.171-.455-.368-.88-.582-1.317h-.4355v.4932l.29.3291v.7402" fill="url(#eaXrMD4k59q52-fill)"/></g></g><g><g><path d="M18.365,28.242l-.582-1.1523-1.0903-.2466-.5815-1.5625-1.4536.1641-1.2354-.9043-1.3091,1.1514v.1816c-.396-.1143-.8828-.1299-1.2354-.3467l-.291-.8223v-.9053l-.8721.082c.0728-.5762.145-1.1514.2183-1.7275h-.5093l-.5083.6582-.5093.2461-.7271-.4102-.0728-.9053.1455-.9873l1.0908-.8223h.8721l.145-.4941l1.0903.2461.7998.9883.1455-1.6465l1.3813-1.1514.5088-1.2344l1.0176-.4111.5815-.8223l1.3081-.248.6548-.9863h-1.9629l1.2358-.5762h.8716l1.2363-.4121.1455-.4922-.4365-.4121-.5088-.165.1455-.4932-.3633-.7402-.8726.3281.1455-.6577-1.0176-.5762-.7993,1.3979.0723.4941-.7993.3301-.5093,1.0693-.2178-.9873-1.3813-.5762-.2183-.7402l1.8174-1.0703.7998-.7402.0728-.9048-.436-.2471-.5815-.0825-.3633.9053c0,0-.6079.1191-.7642.1577-1.9961,1.8394-6.0293,5.8101-6.9663,13.306.0371.1738.6792,1.1816.6792,1.1816l1.5264.9043l1.5264.4121.6548.8232l1.0171.7402.5815-.082.436.1963v.1328l-.5811,1.563-.4365.6582.1455.3301-.3633,1.2324L12.186,32.767l1.3081,1.1523.582.8223-.0732,1.7285.4365.9863-.4365,1.8926c0,0-.0342-.0117.0215.1777.0562.1895,2.3291,1.4512,2.4736,1.3438.144-.1094.2671-.2051.2671-.2051l-.145-.4102.5811-.5762.2183-.5762.9453-.3301.7266-1.8105-.2178-.4922.5078-.7402l1.0908-.248.582-1.3164-.1455-1.6445.8721-1.2344.1455-1.2344c-1.194-.59-2.377-1.2-3.562-1.809" fill="url(#eaXrMD4k59q55-fill)"/></g></g><g><g><path d="M16.766,9.5649l.7266.4937h.582v-.5757l-.7266-.3291-.582.4111" fill="url(#eaXrMD4k59q58-fill)"/></g></g><g><g><path d="M14.876,8.9072l-.3638.9048h.7271l.3638-.8228c.314-.2217.626-.4448.945-.6582l.7271.2471c.4844.3291.9688.6582,1.4536.9868l.727-.6577-.8-.3291-.364-.7407-1.381-.1646-.073-.4116-.654.165-.29.5758-.364-.7407-.145.3291.0728.8228-.5816.494" fill="url(#eaXrMD4k59q61-fill)"/></g></g><g><g><path d="M17.492,6.8496l.364-.3286.727-.1646c.498-.2422.998-.4053,1.5264-.5762l-.29-.4937-.9385.1348-.4434.4419-.731.106-.6499.3052-.3159.1528-.1929.2583.9443.1641" fill="url(#eaXrMD4k59q64-fill)"/></g></g><g><g><path d="M18.728,14.666l.4365-.6582-.6548-.4932.2183,1.1514" fill="url(#eaXrMD4k59q67-fill)"/></g></g></g><path d="M36.872,19.442c0,6.8617-5.5626,12.424-12.423,12.424-6.8614,0-12.424-5.5626-12.424-12.424s5.5623-12.423,12.424-12.423c6.8607,0,12.423,5.5619,12.423,12.423Z" fill="none" stroke="url(#eaXrMD4k59q68-stroke)"/></g><g id="eaXrMD4k59q69" transform="matrix(-.30581 0.64352-.56173-.266942 477.84721 46.7366)" opacity="0"><path id="eaXrMD4k59q70" d="M532.31,-18.95c10.133-11.43,31.454-7.351,37.655,6.3903c4.4056,9.2065-.23463,23.557-11.509,23.524-9.8166-1.2248-18.727-10.923-20.002-20.857-.0898-1.3557-.11575-2.715-.22618-4.0695m-84.842-8.6941c6.1874-9.7364,17.556-19.869,29.673-15.635c8.3959,1.9038,11.367,20.036,17.883,17.274c5.6076-11.61,19.9-12.617,29.896-6.9566c11.249,3.0134,12.081,18.708-.12558,20.709-13.77,4.6179-19.812-11.278-28.167-18.508-5.8037-3.8883-13.07-4.9231-19.849-3.9965m-67.102,4.7422c-12.008-5.0105-25.346,10.99-16.953,21.874l.84902,1.6689.67858,1.7496m64-20.55c-9.7561-5.5937-22.482-12.467-33.163-5.2351-13.19,5.4828-6.5333,24.438,6.8512,22.943c8.1875,2.0228,20.81,1.221,22.35-9.4075-.62341-13.818-16.195-18.628-25.196-26.034-11.026-4.8644-24.197,4.406-25.669,15.95.95426,10.464,12.894,15.168,21.784,12.501c3.0283-.34725,6.0834-.73838,9.1334-.44301m47.82-10.275c-8.1934-5.9248-31.806-6.3752-26.397,8.6047c6.1524,9.261,20.393,13.114,29.827,7.0189c2.8054-2.0753,4.3635-5.8049,3.5114-9.3006m-16.19,15.809c-11.83-6.4021-26.18,11.741-17.14,22.092c9.3843,7.0981,22.847,6.6311,32.552.46175c7.751-9.5877,5.8226-25.574-5.791-30.738-8.7488-8.2576-27.046,2.4125-18.041,13.57c8.6691,11.992,24.391,13.603,37.835,13.28c9.7542,1.4025,26.189-2.1006,22.862-15.67-2.889-10.579-13.055-17.327-22.687-20.493-13.596-5.5057-23.663,14.605-9.0174,20.555c12.38,6.4429,26.517,2.1697,39.518.52869c6.936-1.8836,15.75-3.206,20.026-9.5334.31092-1.6015-.142-3.165-.60439-4.6646m-145.84,27.999c10.612-5.8368,9.9031-22.835-1.9521-26.457-8.1745-6.0626-23.588-1.8444-22.846,10.044.72584,9.7897,5.6516,20.166,14.771,24.317m22.37-20.55c3.7631,11.911,16.993,16.98,28.255,17.013c12.081-5.2353,3.8417-21.514-4.3282-26.469-7.5365-6.3568-22.202-4.2511-26.685,4.852-7.0684-.76457-7.0282,11.329-4.9554,15.67m6.0944,45.414c11.536,5.0495,26.47.04281,32.027-11.707c6.4729-8.6941,10.467-22.93,1.5853-31.439-5.6203-5.7466-15.712-12.857-23.13-6.1422m-7.3209,20.472c7.643-5.2014,22.414-13.544,25.107,1.2442c6.1973,11.158-1.8368,25.23-14.754,20.557-7.143-1.6595-12.46-7.8914-14.98-14.688m-16.2-20.55c-11.693-3.17-27.421,12.042-15.705,22.14c7.3618,7.6788,31.977,5.5976,25.968-8.7702-3.6141-8.6192-27.358-12.06-21.692,1.3257c8.5332,7.8824,18.786,13.36,26.291,22.572c5.6906,4.4412,8.6077-1.2793,8.0833-6.5369-1.5068-3.8895-4.8883-7.514-7.0583-11.248m-50.596,72.202c-3.7714,6.6803-13.332,3.3794-16.197-2.3711m2.3139-9.4845c-2.3678,12.529,21.257,9.7513,18.195-1.4302-3.8063-9.6761-15.188-6.3377-21.595-2.1634-8.4025,5.6726,2.6984,22.912,9.062,12.77.16962-.4242.33924-.84838.50885-1.2726m21.596-67.972c-11.833,4.5221-9.7833,26.12,3.3317,26.986c13.473,2.9118,19.892-17.339,10.234-25.49-4.8209-3.5041-15.364-2.7938-7.1971-9.7631l.0995-.96574-.41066-1.0066m-2.9719,22.095c5.9487-7.5679,27.66-9.4497,25.469,3.8809-2.6721,5.0898-9.6243,6.9522-14.671,4.8132m11.658,14.615c9.8833,9.7918,23.819-10.119,12.269-17.003-8.5924-10.084-18.276,11.79-5.4162,11.872m-37.022-5.5326c-10.668,6.2659-5.8473,25.428,6.3631,25.893c11.719.67872,25.73-6.1951,27.653-19.125-.70599-11.662-20.497-17.256-25.957-6.6366-2.7984,8.4177,6.0275,15.903,13.537,16.466m-46.817,15.748c-3.9308-13.443,14.957-25.985,24.963-16.178c9.9795,11.175-11.55,27.294-15.193,10.315-5.4873-9.7633-.98047-24.35,11.522-22.847c3.6148-.33124,7.2465-.35508,10.871-.47482" transform="matrix(.623212-.782053 0.782053 0.623212 154.746419 350.772897)" opacity="0.75" fill="#84827d" stroke="#484849" stroke-width="0.93429"/><path d="M491.73,-17.162c-6.2002-7.3053-17.646-9.3567-26.348-6.1033-1.4532,3.3839-9.3839-1.4858-3.6266-1.2778c9.7852-2.0547,19.462-6.0177,29.58-4.5558c2.6755,3.2994,7.4906,15.286,10.702,7.6742c1.7072-7.5641,12.808,9.8608,3.2558,4.7677-5.2987-1.4118-9.9204,5.351-13.563-.505Z" opacity="0" fill="#84827d"/></g><g id="eaXrMD4k59q72" transform="matrix(.094245-.32093 0.32093 0.094245 923.756252 807.579548)"><g transform="matrix(-.14631-.11948-.11948 0.14631 375.4 735.12)"><path d="M740,725.22c.47104,27.193-3.1351,55.387,9.2666,80.806c9.1519,30.499,32.088,53.66,44.574,82.703c21.678,26.89,12.547,62.813,15.286,94.186-1.9541,19.435-14.121,13.647-5.801-2.3203c7.5779-31.159,16.416-68.85,49.237-82.592c21.088-10.425,44.52-19.343,57.211-40.708c22.724-29.116,30.371-65.88,33.572-101.79.32262-17.756,10.181-50.793-4.4459-59.021-16.547,19.396-43.696,16.619-66.261,21.337-26.335,2.3469-52.389-2.0214-78.442-4.0645-17.465,3.0974-42.445-6.4528-54.646,6.0251l.44777,5.4403Z" fill="#fc0"/><path d="M753.01,712.87c-2.2958,29.76-11.955,61.824,1.7371,90.167c7.038,14.496,21.797,22.555,29.426,36.703c17.649,27.512,22.801,61.331,22.351,93.736c8.4484,24.227-12.631,45.202-12.867,68.863-.16082,6.2472,4.7774,14.637,5.1798,3.6726c3.446-25.192-10.594-52.604,3.4071-76.078c24.171-22.01,62.319-5.2048,86.015-28.474c26.486-20.721,53.522-47.197,58.032-82.911c5.0372-27.5-4.6152-54.726-16.755-78.816-6.322-11.919-11.309-24.714-18.081-36.274-18.502-22.624-49.574-25.941-76.496-25.262-13.203-1.2035-25.197,4.1943-35.925,11.737-14.537,9.1452-28.998,19.468-46.025,22.936Z" opacity="0.51229" fill="#ff0"/><path d="M761.43,710.93c-.58666,20.622-7.1808,43.17,4.2552,62.111c5.2356,11.105,11.506,21.832,19.551,31.205c7.2503,9.2806,16.088,17.32,22.855,26.933c14.141,24.917,11.304,56.091.009,81.508-.69973,3.4088-4.1485,10.27-1.9792,2.2673c3.147-9.7754,5.0423-21.59,13.693-28.126c20.665-15.71,50.388-14.603,68.53-34.331c15.644-10.587,19.785-31.179,17.329-48.842-1.7264-14.801-7.4516-28.693-10.541-43.21-3.1535-12.193-9.2862-26.685-23.294-28.852-13.154-.95976-26.371,1.4459-39.574,1.0442-11.918-.80846-25.139,1.4261-36.114-3.6723-9.0844-6.1523-14.083-18.805-25.845-20.505-3.1382-.22043-6.2189.87766-8.8783,2.4691Z" opacity="0.51229" fill="#f00"/><path d="M768.57,716.65c-.38078,22.66-6.256,47.469,5.971,68.194c8.8673,15.148,20.563,28.436,32.067,41.616c12.184,12.718,23.21,28.059,24.077,46.29c2.9145,19.661,1.2767,40.016-6.1065,58.554c4.387-11.352,6.0801-23.609,11.818-34.522c3.9245-9.6631,11.732-15.688,15.856-25.684c8.105-14.213,15.304-32.041,32.31-37.333c28.318-12.776-2.2562-46.273,24.861-61.522c13.221-7.7665,49.215-20.953,50.571-36.563c2.4879-15.262,35.524-7.9416,36.023-23.28-.54909-12.719-10.167-27.736-24.57-25.224-18.361,2.006-36.644,5.2437-54.99,7.6671-36.803,3.801-73.486,14.162-110.72,9.6654-13.454-.16363-24.816,8.1214-37.166,12.143Z" opacity="0.51229" fill="#f60"/><path d="M842.86,706.65c-3.0456,15.167-21.021,17.514-30.867,26.855-12.868,7.2967-11.299,22.779-12.221,35.401-2.5588,18.399,16.585,27.181,26.228,39.72c8.9755,13.27,3.0249,31.53-2.8219,44.811-1.7239,16.447-8.4773,35.654,4.7875,49.229-1.4705.49995-12.031-25.801-.22434-32.567c12.706-6.417,31.639,4.0672,39.063-13.599c10.04-12.605,12.324-28.947,17.852-43.708c4.8877-20.499,6.9764-42.231,4.3265-63.128-4.7477-14.313-11.793-28.171-20.656-40.341-8.6976-10.755-22.662,13.535-29.618,3.9677c1.2703-2.2854,2.9481-4.3049,4.1507-6.6403Z" fill="#f00"/></g><g transform="matrix(.16134 0.098239-.098239 0.16134 239.78 637.17)"><path d="M740,725.22c.47104,27.193-3.1351,55.387,9.2666,80.806c9.1519,30.499,32.088,53.66,44.574,82.703c21.678,26.89,12.547,62.813,15.286,94.186-1.9541,19.435-14.121,13.647-5.801-2.3203c7.5779-31.159,16.416-68.85,49.237-82.592c21.088-10.425,44.52-19.343,57.211-40.708c22.724-29.116,30.371-65.88,33.572-101.79.32262-17.756,10.181-50.793-4.4459-59.021-16.547,19.396-43.696,16.619-66.261,21.337-26.335,2.3469-52.389-2.0214-78.442-4.0645-17.465,3.0974-42.445-6.4528-54.646,6.0251l.44777,5.4403Z" fill="#fc0"/><path d="M753.01,712.87c-2.2958,29.76-11.955,61.824,1.7371,90.167c7.038,14.496,21.797,22.555,29.426,36.703c17.649,27.512,22.801,61.331,22.351,93.736c8.4484,24.227-12.631,45.202-12.867,68.863-.16082,6.2472,4.7774,14.637,5.1798,3.6726c3.446-25.192-10.594-52.604,3.4071-76.078c24.171-22.01,62.319-5.2048,86.015-28.474c26.486-20.721,53.522-47.197,58.032-82.911c5.0372-27.5-4.6152-54.726-16.755-78.816-6.322-11.919-11.309-24.714-18.081-36.274-18.502-22.624-49.574-25.941-76.496-25.262-13.203-1.2035-25.197,4.1943-35.925,11.737-14.537,9.1452-28.998,19.468-46.025,22.936Z" opacity="0.51229" fill="#ff0"/><path d="M761.43,710.93c-.58666,20.622-7.1808,43.17,4.2552,62.111c5.2356,11.105,11.506,21.832,19.551,31.205c7.2503,9.2806,16.088,17.32,22.855,26.933c14.141,24.917,11.304,56.091.009,81.508-.69973,3.4088-4.1485,10.27-1.9792,2.2673c3.147-9.7754,5.0423-21.59,13.693-28.126c20.665-15.71,50.388-14.603,68.53-34.331c15.644-10.587,19.785-31.179,17.329-48.842-1.7264-14.801-7.4516-28.693-10.541-43.21-3.1535-12.193-9.2862-26.685-23.294-28.852-13.154-.95976-26.371,1.4459-39.574,1.0442-11.918-.80846-25.139,1.4261-36.114-3.6723-9.0844-6.1523-14.083-18.805-25.845-20.505-3.1382-.22043-6.2189.87766-8.8783,2.4691Z" opacity="0.51229" fill="#f00"/><path d="M768.57,716.65c-.38078,22.66-6.256,47.469,5.971,68.194c8.8673,15.148,20.563,28.436,32.067,41.616c12.184,12.718,23.21,28.059,24.077,46.29c2.9145,19.661,1.2767,40.016-6.1065,58.554c4.387-11.352,6.0801-23.609,11.818-34.522c3.9245-9.6631,11.732-15.688,15.856-25.684c8.105-14.213,15.304-32.041,32.31-37.333c28.318-12.776-2.2562-46.273,24.861-61.522c13.221-7.7665,49.215-20.953,50.571-36.563c2.4879-15.262,35.524-7.9416,36.023-23.28-.54909-12.719-10.167-27.736-24.57-25.224-18.361,2.006-36.644,5.2437-54.99,7.6671-36.803,3.801-73.486,14.162-110.72,9.6654-13.454-.16363-24.816,8.1214-37.166,12.143Z" opacity="0.51229" fill="#f60"/><path d="M842.86,706.65c-3.0456,15.167-21.021,17.514-30.867,26.855-12.868,7.2967-11.299,22.779-12.221,35.401-2.5588,18.399,16.585,27.181,26.228,39.72c8.9755,13.27,3.0249,31.53-2.8219,44.811-1.7239,16.447-8.4773,35.654,4.7875,49.229-1.4705.49995-12.031-25.801-.22434-32.567c12.706-6.417,31.639,4.0672,39.063-13.599c10.04-12.605,12.324-28.947,17.852-43.708c4.8877-20.499,6.9764-42.231,4.3265-63.128-4.7477-14.313-11.793-28.171-20.656-40.341-8.6976-10.755-22.662,13.535-29.618,3.9677c1.2703-2.2854,2.9481-4.3049,4.1507-6.6403Z" fill="#f00"/></g><g transform="matrix(.48043 0.30088-.49825 0.69958 197.26 15.21)"><path d="M740,725.22c.47104,27.193-3.1351,55.387,9.2666,80.806c9.1519,30.499,32.088,53.66,44.574,82.703c21.678,26.89,12.547,62.813,15.286,94.186-1.9541,19.435-14.121,13.647-5.801-2.3203c7.5779-31.159,16.416-68.85,49.237-82.592c21.088-10.425,44.52-19.343,57.211-40.708c22.724-29.116,30.371-65.88,33.572-101.79.32262-17.756,10.181-50.793-4.4459-59.021-16.547,19.396-43.696,16.619-66.261,21.337-26.335,2.3469-52.389-2.0214-78.442-4.0645-17.465,3.0974-42.445-6.4528-54.646,6.0251l.44777,5.4403Z" fill="#fc0"/><path d="M753.01,712.87c-2.2958,29.76-11.955,61.824,1.7371,90.167c7.038,14.496,21.797,22.555,29.426,36.703c17.649,27.512,22.801,61.331,22.351,93.736c8.4484,24.227-12.631,45.202-12.867,68.863-.16082,6.2472,4.7774,14.637,5.1798,3.6726c3.446-25.192-10.594-52.604,3.4071-76.078c24.171-22.01,62.319-5.2048,86.015-28.474c26.486-20.721,53.522-47.197,58.032-82.911c5.0372-27.5-4.6152-54.726-16.755-78.816-6.322-11.919-11.309-24.714-18.081-36.274-18.502-22.624-49.574-25.941-76.496-25.262-13.203-1.2035-25.197,4.1943-35.925,11.737-14.537,9.1452-28.998,19.468-46.025,22.936Z" opacity="0.51229" fill="#ff0"/><path d="M761.43,710.93c-.58666,20.622-7.1808,43.17,4.2552,62.111c5.2356,11.105,11.506,21.832,19.551,31.205c7.2503,9.2806,16.088,17.32,22.855,26.933c14.141,24.917,11.304,56.091.009,81.508-.69973,3.4088-4.1485,10.27-1.9792,2.2673c3.147-9.7754,5.0423-21.59,13.693-28.126c20.665-15.71,50.388-14.603,68.53-34.331c15.644-10.587,19.785-31.179,17.329-48.842-1.7264-14.801-7.4516-28.693-10.541-43.21-3.1535-12.193-9.2862-26.685-23.294-28.852-13.154-.95976-26.371,1.4459-39.574,1.0442-11.918-.80846-25.139,1.4261-36.114-3.6723-9.0844-6.1523-14.083-18.805-25.845-20.505-3.1382-.22043-6.2189.87766-8.8783,2.4691Z" opacity="0.51229" fill="#f00"/><path d="M768.57,716.65c-.38078,22.66-6.256,47.469,5.971,68.194c8.8673,15.148,20.563,28.436,32.067,41.616c12.184,12.718,23.21,28.059,24.077,46.29c2.9145,19.661,1.2767,40.016-6.1065,58.554c4.387-11.352,6.0801-23.609,11.818-34.522c3.9245-9.6631,11.732-15.688,15.856-25.684c8.105-14.213,15.304-32.041,32.31-37.333c28.318-12.776-2.2562-46.273,24.861-61.522c13.221-7.7665,49.215-20.953,50.571-36.563c2.4879-15.262,35.524-7.9416,36.023-23.28-.54909-12.719-10.167-27.736-24.57-25.224-18.361,2.006-36.644,5.2437-54.99,7.6671-36.803,3.801-73.486,14.162-110.72,9.6654-13.454-.16363-24.816,8.1214-37.166,12.143Z" opacity="0.51229" fill="#f60"/><path d="M842.86,706.65c-3.0456,15.167-21.021,17.514-30.867,26.855-12.868,7.2967-11.299,22.779-12.221,35.401-2.5588,18.399,16.585,27.181,26.228,39.72c8.9755,13.27,3.0249,31.53-2.8219,44.811-1.7239,16.447-8.4773,35.654,4.7875,49.229-1.4705.49995-12.031-25.801-.22434-32.567c12.706-6.417,31.639,4.0672,39.063-13.599c10.04-12.605,12.324-28.947,17.852-43.708c4.8877-20.499,6.9764-42.231,4.3265-63.128-4.7477-14.313-11.793-28.171-20.656-40.341-8.6976-10.755-22.662,13.535-29.618,3.9677c1.2703-2.2854,2.9481-4.3049,4.1507-6.6403Z" fill="#f00"/></g><g transform="matrix(-.14956-.1646-.17692 0.12953 471.72 860.56)"><path d="M740,725.22c.47104,27.193-3.1351,55.387,9.2666,80.806c9.1519,30.499,32.088,53.66,44.574,82.703c21.678,26.89,12.547,62.813,15.286,94.186-1.9541,19.435-14.121,13.647-5.801-2.3203c7.5779-31.159,16.416-68.85,49.237-82.592c21.088-10.425,44.52-19.343,57.211-40.708c22.724-29.116,30.371-65.88,33.572-101.79.32262-17.756,10.181-50.793-4.4459-59.021-16.547,19.396-43.696,16.619-66.261,21.337-26.335,2.3469-52.389-2.0214-78.442-4.0645-17.465,3.0974-42.445-6.4528-54.646,6.0251l.44777,5.4403Z" fill="#fc0"/><path d="M753.01,712.87c-2.2958,29.76-11.955,61.824,1.7371,90.167c7.038,14.496,21.797,22.555,29.426,36.703c17.649,27.512,22.801,61.331,22.351,93.736c8.4484,24.227-12.631,45.202-12.867,68.863-.16082,6.2472,4.7774,14.637,5.1798,3.6726c3.446-25.192-10.594-52.604,3.4071-76.078c24.171-22.01,62.319-5.2048,86.015-28.474c26.486-20.721,53.522-47.197,58.032-82.911c5.0372-27.5-4.6152-54.726-16.755-78.816-6.322-11.919-11.309-24.714-18.081-36.274-18.502-22.624-49.574-25.941-76.496-25.262-13.203-1.2035-25.197,4.1943-35.925,11.737-14.537,9.1452-28.998,19.468-46.025,22.936Z" opacity="0.51229" fill="#ff0"/><path d="M761.43,710.93c-.58666,20.622-7.1808,43.17,4.2552,62.111c5.2356,11.105,11.506,21.832,19.551,31.205c7.2503,9.2806,16.088,17.32,22.855,26.933c14.141,24.917,11.304,56.091.009,81.508-.69973,3.4088-4.1485,10.27-1.9792,2.2673c3.147-9.7754,5.0423-21.59,13.693-28.126c20.665-15.71,50.388-14.603,68.53-34.331c15.644-10.587,19.785-31.179,17.329-48.842-1.7264-14.801-7.4516-28.693-10.541-43.21-3.1535-12.193-9.2862-26.685-23.294-28.852-13.154-.95976-26.371,1.4459-39.574,1.0442-11.918-.80846-25.139,1.4261-36.114-3.6723-9.0844-6.1523-14.083-18.805-25.845-20.505-3.1382-.22043-6.2189.87766-8.8783,2.4691Z" opacity="0.51229" fill="#f00"/><path d="M768.57,716.65c-.38078,22.66-6.256,47.469,5.971,68.194c8.8673,15.148,20.563,28.436,32.067,41.616c12.184,12.718,23.21,28.059,24.077,46.29c2.9145,19.661,1.2767,40.016-6.1065,58.554c4.387-11.352,6.0801-23.609,11.818-34.522c3.9245-9.6631,11.732-15.688,15.856-25.684c8.105-14.213,15.304-32.041,32.31-37.333c28.318-12.776-2.2562-46.273,24.861-61.522c13.221-7.7665,49.215-20.953,50.571-36.563c2.4879-15.262,35.524-7.9416,36.023-23.28-.54909-12.719-10.167-27.736-24.57-25.224-18.361,2.006-36.644,5.2437-54.99,7.6671-36.803,3.801-73.486,14.162-110.72,9.6654-13.454-.16363-24.816,8.1214-37.166,12.143Z" opacity="0.51229" fill="#f60"/><path d="M842.86,706.65c-3.0456,15.167-21.021,17.514-30.867,26.855-12.868,7.2967-11.299,22.779-12.221,35.401-2.5588,18.399,16.585,27.181,26.228,39.72c8.9755,13.27,3.0249,31.53-2.8219,44.811-1.7239,16.447-8.4773,35.654,4.7875,49.229-1.4705.49995-12.031-25.801-.22434-32.567c12.706-6.417,31.639,4.0672,39.063-13.599c10.04-12.605,12.324-28.947,17.852-43.708c4.8877-20.499,6.9764-42.231,4.3265-63.128-4.7477-14.313-11.793-28.171-20.656-40.341-8.6976-10.755-22.662,13.535-29.618,3.9677c1.2703-2.2854,2.9481-4.3049,4.1507-6.6403Z" fill="#f00"/></g><path d="M416.27,512.46c-2.6842-.3908-5.5784-.44446-8.663-.13548-1.2338.12359-2.5045.30239-3.7985.5415-2.588.47823-5.3003,1.1892-8.1157,2.1417-2.1116.71438-4.2716,1.5678-6.5023,2.557-7.4358,3.2972-15.524,8.1348-24.104,14.65-1.0666.76775-2.1445,1.564-3.23,2.3745-.84596.63166-1.6901,1.2779-2.5469,1.9345-.83229.63793-1.6701,1.2796-2.5121,1.9404-.15185.11919-.30143.23342-.45358.35334-.32331.25476-.64944.5269-.97404.78493-.0463.0367-.0962.0645-.14248.10134-.26542.21119-.52169.42387-.78799.63721-.56995.45657-1.1446.90955-1.7184,1.3758-.29895.24279-.59281.48165-.8927.72702-.0254.0208-.056.0371-.0814.0579-.47492.38884-.94166.79825-1.419,1.1934-.48272.3996-.96872.78163-1.4539,1.1876-.53739.44953-1.0708.91886-1.611,1.376-.36816.31151-.7385.62648-1.1079.94145-.0127.0108-.028.0181-.0407.029-.0125.0107-.0282.0183-.0407.029-.3856.32892-.76464.65519-1.1516.98781-.1791.15397-.3644.30874-.54378.46348-.0736.0635-.13871.13342-.21231.19702-.55741.48163-1.1179.9652-1.6779,1.4542-.3578.3124-.71136.61455-1.0702.9299-.12961.11393-.25124.23336-.38098.34766-.19848.17488-.39158.35151-.59036.52727-.0281.0249-.0562.0505-.0843.0753-.8246.72937-1.6542,1.4518-2.4835,2.1959-.10071.0904-.19586.18175-.29664.27234-1.9177,1.7237-3.8598,3.4931-5.7991,5.2903-.0867.0803-.16924.16292-.25595.24339-.10361.0961-.21334.19048-.317.28682-1.7475,1.624-3.498,3.2744-5.2584,4.9516-1.3583,1.2941-2.7197,2.609-4.0836,3.9319-.52477.50897-1.0424,1.0315-1.5678,1.5444-.1357.1325-.27146.26422-.4072.39697-1.7018,1.6643-3.4074,3.345-5.1135,5.0477-1.5105,1.5076-3.0207,3.0386-4.5319,4.5727-.53208.54014-1.065,1.068-1.5969,1.6112-.13659.13947-.27355.27473-.41014.41439-1.952,1.9959-3.906,4.0022-5.8528,6.0334-2.0601,2.1494-4.116,4.3195-6.1643,6.5002-.66028.70296-1.3109,1.4158-1.9695,2.1214-1.5005,1.6076-2.9958,3.2122-4.486,4.8312-.3318.36047-.65795.72589-.98916,1.0868-1.7541,1.9116-3.5131,3.8202-5.2483,5.7413-.56179.62196-1.1163,1.2439-1.6758,1.8665-1.2756,1.4193-2.5371,2.8454-3.7997,4.2663-1.0735,1.208-2.1431,2.4066-3.2062,3.6142-.75587.85866-1.5105,1.7159-2.2607,2.5738-1.1457,1.3101-2.2874,2.6118-3.4187,3.9187-1.157,1.3365-2.2928,2.6745-3.4334,4.0057-.49205.57424-.98348,1.1487-1.4723,1.7217-1.5707,1.8412-3.1176,3.6764-4.6527,5.5015-.35388.42074-.71889.83244-1.0708,1.2522-1.445,1.7236-2.8597,3.4326-4.2688,5.1364-.42809.51761-.85868,1.0411-1.2833,1.5566-1.5418,1.8719-3.064,3.7306-4.557,5.5714-.246.30329-.50034.61075-.74496.9131-.15054.18608-.30397.38246-.45398.56818-1.5786,1.9543-3.1334,3.896-4.6504,5.8063-1.5875,1.9991-3.1362,3.9707-4.6506,5.9138-.81946,1.0514-1.6072,2.0716-2.404,3.1048-.90513,1.1738-1.8088,2.339-2.6834,3.4875-.11832.15538-.22861.30606-.34636.46095-.71197.93653-1.3875,1.8474-2.0782,2.7657-.12762-.18701-.27314-.3627-.44607-.54085-.26836-.27607-.58918-.53455-.95947-.7886-.004-.003-.0131.00008-.0174-.003-.18191-.1248-.3781-.24787-.58285-.36691-.0686-.0398-.14062-.0861-.2117-.12524-.0515-.0283-.11257-.0537-.16533-.0816-.24077-.12754-.49351-.25872-.75993-.37886-.0799-.036-.16731-.0784-.24946-.1137-.50536-.21708-1.0526-.40784-1.6363-.59827-.29065-.0949-.59403-.18956-.90238-.27753-1.0323-.29418-2.1612-.55209-3.3634-.76413-3.4142-.60176-7.429-.86896-11.542-.69257-1.5416.0658-3.0906.20921-4.6343.40056-.13387.0166-.26705.0223-.40072.0399-1.0166.13363-2.0236.30181-3.0203.49362-.26168.0504-.5187.10075-.77836.1553-.42955.0901-.86075.18346-1.2838.28498-.0255.006-.05.0169-.0755.0231-.96169.23259-1.9005.4848-2.8176.77852-.30245.0969-.59823.21102-.89479.31475-.21152.0739-.42216.15652-.63045.23397-.19035.0708-.38482.13416-.57233.20794-.45259.17795-.89323.35077-1.3278.54619-.65594.33652-1.2848.68984-1.9297,1.0357-.91528.4907-1.8292.98261-2.7232,1.4929-.46474.26534-.93007.5336-1.3893.80446-.10794.0636-.21209.13285-.31973.19681-.89808.53378-1.7788,1.0735-2.6566,1.6295-.19064.12068-.37422.24879-.56393.37054-.79806.51242-1.5926,1.0197-2.3749,1.5516-.0207.014-.0404.0294-.061.0434-.79549.54177-1.595,1.0962-2.3751,1.659-.3072.22161-.61378.44392-.91869.6689-.70723.52194-1.4009,1.0581-2.0963,1.5986-.25627.19914-.50997.40359-.7647.60532-.60203.4769-1.209.95947-1.8028,1.4511-.15709.13005-.32033.25412-.47686.38522-.6014.50376-1.1892,1.0245-1.7826,1.544-.47742.41786-.95824.83475-1.4308,1.2631-.0994.0901-.19747.18176-.29665.27234-1.7776,1.6231-3.5148,3.3363-5.2326,5.1172-.33706.34954-.68305.69023-1.0181,1.0461-.19268.20462-.37816.41346-.57021.62021-.36118.38889-.71739.78305-1.0764,1.1796-.74405.82151-1.4958,1.652-2.2315,2.507-.20796.24175-.41823.49176-.62559.73624-.30332.35757-.59706.7206-.89916,1.0841-.54862.6601-1.0818,1.3202-1.6267,2.0001-1.2858,1.604-2.5775,3.2557-3.8475,4.9746-.0943.12769-.18517.25436-.27944.3827-.43871.5972-.86958,1.1918-1.307,1.8033-.0237.0331-.0461.0625-.0698.0957-.0108.0152-.0154.0341-.0262.0493-.46946.65852-.94339,1.3258-1.4119,2.0005-.45005.64904-.90464,1.3096-1.3538,1.9745-.0179.0264-.0316.0547-.0495.0812-.21681.32136-.42967.64046-.64635.96555-.25335.37953-.51306.7581-.76572,1.1424-.34118.51896-.67509,1.0375-1.0162,1.5658-.12591.19471-.24101.38685-.36691.58285-.46892.72857-.94012,1.4496-1.4093,2.198-.003.005.00013.0128-.003.0174-.0597.26264-.10774.53359-.15246.79811-.003.0173-.006.0349-.009.0522-.0363.21861-.0679.44496-.0942.66466-.0268.22388-.0427.44576-.0594.67053-.002.0231-.0101.0465-.0117.0697-.005.0711-.0139.14072-.0179.2119-.002.0418-.001.0829-.003.12483-.0004.006-.003.0117-.003.0174-.00077.0181.009.0371.009.0552-.003.0709-.0157.14089-.0178.21189-.003.11915-.006.23777-.007.35709-.002.37488.003.73862.0269,1.1149.002.0244.004.0482.006.0726.00017.006-.003.0118-.003.0174.0127.18282.0325.36295.0512.5459.009.0845.0186.171.0285.25554.004.0373.0126.073.0172.11036.032.25768.0768.51464.12047.77249.00083.005-.004.012-.003.0174.05.29468.0932.57375.15803.86837s.14833.58583.22768.88011c.0737.27125.15333.53982.23943.81046.0158.0502.03.1009.0462.15105.0805.2466.16097.49485.25118.7408.0189.0521.0443.10194.0636.154.007.0197.0186.0384.026.0581.0819.21648.15952.43493.24844.6508.01.0244.013.0511.0231.0755.1223.29425.25566.57877.39028.87171.18537.40327.37482.80911.58416,1.2088.0411.0786.0794.15687.12149.23539.0501.0933.0991.18302.15044.2761.004.007.0105.0131.0145.0203.0728.13194.14486.26432.21989.39526.40354.70413.85971,1.3993,1.3315,2.087.009.0135.0196.0272.029.0407.19399.28184.37143.55286.57616.83142.0518.0708.10969.13578.16219.20644.1949.26102.39846.52431.60239.78211.14608.18593.29256.3741.44313.55826.0797.0969.15654.19444.23752.29078.1526.18277.30655.36317.46348.54378.24689.28281.49616.56553.75324.84337.35955.38857.73727.75926,1.1156,1.1373.0208.0208.04.0433.0608.064.1909.19009.39002.3771.58538.56434.22061.2112.43757.42388.66364.63126.0155.0142.0309.0294.0464.0436.99899.91506,2.0464,1.7944,3.1392,2.6247.55905.42478,1.1283.83736,1.7076,1.2371.0218.015.042.0316.0638.0466.005.003.0129-.00012.0174.003.27568.18938.55826.36984.83798.55321.26849.17603.53414.35961.8061.52992.0602.0377.1165.082.17687.11936.17125.10622.3495.19906.522.30293.0703.0423.14117.0833.2117.12524.15226.0905.30212.18513.45529.27377.0483.0279.0995.0509.14792.0786.0923.053.18576.1021.27842.1544.0941.0531.18107.11942.27548.17182.005.003.0126.0004.0174.003.19021.10548.38286.20921.57425.31173.39379.21092.78802.41391,1.1863.61194.0988.0491.19975.0916.29877.13992.0284.0139.0527.0357.0812.0495.48554.23554.97434.44354,1.4649.65891.21226.0933.41935.19631.63236.28572.0725.0304.14497.0605.21758.0904.49289.20355.98085.4074,1.4766.58926.24179.0886.48601.16485.72824.24816.0676.0233.13544.0472.2031.0701.33366.1126.6669.22774,1.001.32997.9999.3063,2.007.56709,3.0034.77506.11446.0239.23397.036.34827.0587.0468.009.0896.0319.13638.0409.1657.0319.33963.0561.505.0851.33026.0574.66689.10415.99552.14999.16463.0232.32635.0448.49052.0648.4926.0601.97554.1068,1.463.13923.32572.0216.65249.0481.97538.057.24476.007.49159-.00088.73452-.001.10824-.00038.21442.002.32226.00064.0186-.00031.0366-.008.0551-.009.0173-.00052.0349.009.0522.009.25473-.005.50543-.0196.75781-.0334.15696-.009.31439-.0163.47038-.0281.15286-.0117.30401-.0336.4559-.0485.006-.00073.0118.004.0174.003.30709-.0304.61195-.0706.91474-.11439.079-.0114.15943-.0191.23812-.0315.23098-.0364.45429-.0733.68249-.11774.037-.007.0735-.01.11035-.0172.26378-.0528.52154-.10892.7813-.17271.29488-.0724.59365-.15788.88305-.2451.0753-.0226.15167-.0456.22658-.0692.0281-.009.0505-.0315.0785-.0405.0252-.008.0505-.0149.0755-.0231.0622-.0203.1269-.0368.18882-.0577.1005-.0341.20236-.0564.30211-.0923.56584-.20324,1.1193-.44156,1.6591-.70524.004-.002.0133.005.0174.003.54398-.26635,1.0697-.56693,1.584-.897c1.8819-4.4844,3.5116-8.3935,5.0512-12.007.12522-.29387.2349-.56311.35871-.85287.0574-.13423.11789-.26694.17496-.40031.31708-.74099.63224-1.47.9419-2.1872-.0366.3837-.0609.76727-.0864,1.1495-.005.071-.0134.14096-.0178.2119-.0367.59757-.06,1.2031-.0702,1.797-.001.0836-.005.1661-.006.24967-.006.57867-.004,1.1467.0142,1.7216.01.30745.025.61406.0418.92041.0228.42276.0549.84824.0905,1.2689.006.0669.0139.13352.0199.20036.0576.64392.10994,1.2749.19669,1.9136.004.0313.0158.0617.0201.0929.17308,1.2536.39822,2.4997.67808,3.7319.0341.1496.0681.29802.10366.4473.1432.60207.31705,1.2043.48433,1.8009.0121.0433.0194.0875.0317.1307c1.5535,5.481,4.102,10.736,7.3154,15.668.0498.0763.10917.14771.15925.22385-.0243.0308-.0455.0648-.0698.0957-.27475.34827-.54641.68976-.82069,1.0436-.12651.16318-.24324.32848-.36965.49285-.4827.62768-.96797,1.2591-1.4494,1.9047-.49633.6654-.99511,1.3561-1.4903,2.041-.1906.26367-.37428.5336-.56474.80022-.49379.69097-.98884,1.3854-1.4817,2.0962-.0598.0863-.12651.16852-.18629.25513-.22405.3243-.4428.6515-.6667.98003-.0275.0386-.0636.0711-.0902.11015-.32093.47205-.63423.93394-.95495,1.415-.003.005.00011.0129-.003.0174-.0818.12316-.15955.24749-.24167.37116-.005.006-.0161.008-.0203.0145-.029.0418-.0652.0854-.0932.12757-.4326.65268-.85171,1.3168-1.2841,1.9863-.0535.083-.11238.15739-.16594.24065-.003.005.00011.013-.003.0174-.40456.62912-.8156,1.2812-1.2201,1.9254-.003.005.00013.0128-.003.0174-.43176.68771-.86987,1.3855-1.3017,2.0908-.0825.1346-.16507.27073-.24754.40598-.27792.45605-.56071.89944-.83872,1.3629-.13688.22809-.26503.45445-.40195.6844-.003.005.00014.0127-.003.0174-.46461.78058-.93585,1.5587-1.4009,2.3606-.18416.95625-.29139,1.9252-.34518,2.8968-.00041.006-.003.0115-.003.0174-.028.48136-.0367.97486-.0318,1.4632.01.983.0872,1.9662.21793,2.9559.0112.0853.0165.17023.0285.25554.0504.35518.11285.71297.17797,1.0687.0101.0551.0154.11049.0258.16553.0823.4348.17832.86624.28204,1.3012.0361.15075.0824.29953.12108.45023.0157.061.0242.12486.0403.18588.0825.31502.17773.62656.27112.94116.0143.048.0142.10015.0287.14812.20081.66457.43659,1.3351.68428,1.9958.11348.30171.2267.59989.34958.90066.002.005-.005.0126-.003.0174.40064.98068.85746,1.9477,1.3532,2.9145.24787.48341.50799.95973.77824,1.4386.54049.9577,1.1353,1.9048,1.7598,2.8398.93677,1.4026,1.9483,2.7802,3.0493,4.1139.003.003.0146-.00041.0174.003.36427.44102.73882.88462,1.121,1.3173.004.004.0138-.002.0174.003.15497.17533.30883.35257.46642.52637.006.006.009.0142.0144.0203.21526.23582.4317.468.6519.70091.0369.0394.0672.0858.10428.12504.17144.1804.34524.3565.51866.53518.61899.63846,1.252,1.2658,1.9038,1.8791.86056.80959,1.7522,1.6048,2.6636,2.3654c3.6457,3.0422,7.6658,5.6668,11.831,7.6899c1.7086.82997,3.4467,1.5505,5.1869,2.164c2.855,1.0066,5.7309,1.7175,8.5548,2.0514c1.1296.13356,2.2559.21419,3.3644.22704c4.9884.0578,9.723-1.1434,13.775-3.9455.74094-.84999,1.4582-1.71,2.1678-2.5536.48973-.58222.96555-1.1658,1.4404-1.745.47393-.57791.9429-1.1582,1.4026-1.7335.37594-.47062.74807-.93706,1.1146-1.406.0839-.10717.16691-.20888.25027-.31597c1.1685-1.5021,2.2937-2.9948,3.3705-4.482.1585-.21876.31208-.43676.46866-.65524.41875-.58462.82014-1.1626,1.2256-1.7454.17924-.25748.3474-.51412.52405-.77126.20137-.29325.41613-.58854.61425-.88141c1.009-1.4915,1.9742-2.9718,2.9001-4.4539c10.111,3.1208,20.561,3.717,30.607-.53412-1.2093,1.1072-2.4421,2.2119-3.7633,3.4129-1.8071,1.6414-3.4678,3.1509-5.5402,5.0295-.0702.29738-.13511.60042-.18752.89965-.18245,1.0416-.24762,2.0933-.22663,3.1496.002.0829-.009.16676-.006.24967.003.0736.0135.14416.017.21777.003.0656-.001.13175.003.19742.0138.24195.0328.48384.0567.72592.06.60844.14623,1.2095.26654,1.8179.001.004.0136.0164.0145.0203.0595.2999.11635.59216.18992.89165.0754.30811.16672.61343.25664.92081.0887.30309.17463.60424.27698.90633s.21656.59691.33217.89773c.10188.26566.20182.52406.31496.78738.52378,1.237,1.1654,2.4515,1.8918,3.65.002.004-.005.0136-.003.0174.70166,1.1568,1.4838,2.2842,2.3481,3.3867.003.003.0147-.00039.0174.003.21419.27305.42557.55672.64875.82575.003.003.0146-.0004.0174.003.22325.26893.45467.54958.68652.81421.70422.80393,1.4431,1.5851,2.2194,2.3442c1.5531,1.5185,3.2414,2.9374,5.0175,4.2308.59188.43108,1.1845.85028,1.7947,1.2518c1.2207.80319,2.4722,1.5365,3.7468,2.2078.005.003.0125.00039.0174.003c2.2259,1.1712,4.5122,2.1363,6.794,2.829.65329.1983,1.3196.37526,1.9703.52922c1.3016.30806,2.5944.53483,3.8659.65187.63567.0585,1.2607.0776,1.884.0849c1.2468.0147,2.4689-.0769,3.647-.28049.589-.10182,1.1641-.22884,1.7311-.38864c1.4175-.39946,2.7595-.97371,4.004-1.7605.56872-.71534,1.1341-1.4249,1.685-2.1336.1235-.15906.24412-.31669.36671-.47544.387-.50028.7512-.9958,1.1293-1.493.27619-.36379.55522-.71619.82657-1.0784.23555-.3138.46378-.62664.69571-.93932.40244-.54357.79588-1.0861,1.1876-1.6265.0938-.12922.18621-.25365.27943-.3827.48079-.6666.94731-1.3384,1.4119-2.0005.0345-.0492.0791-.0929.11353-.14204-.006-.00041-.0116-.003-.0174-.003c12.478-17.822,19.118-34.102,21.669-52.885c1.0754-12.845-6.2377-30.083-12.085-34.005c25.402-37.711,55.208-92.669,75.472-140.65.58997-1.3967,1.1882-2.796,1.7615-4.1802.29803-.71929.58741-1.4281.88082-2.1438.27282-.66564.55091-1.3306.81962-1.993.34183-.8421.67996-1.6786,1.0151-2.5152.21558-.53825.41457-1.0597.62722-1.5956.76018-1.914,1.5062-3.796,2.2289-5.6774.30515-.79484.60342-1.5845.90161-2.3731.15443-.4081.30267-.8063.45521-1.2127.34329-.91505.68196-1.824,1.0155-2.73.10028-.27186.19846-.53839.29769-.80943.85705-2.3414,1.6868-4.6504,2.4751-6.9253.35423-.96867.67974-1.9203,1.0041-2.8752.64885-1.9097,1.244-3.7946,1.7759-5.6463.53366-1.8577,1.0049-3.6773,1.4243-5.4728.20912-.89491.41015-1.7795.5915-2.6582.54559-2.6426.95802-5.1979,1.2604-7.6853.10052-.82724.19441-1.6349.26884-2.444.22281-2.4212.32746-4.769.32398-7.0194.00096-.006.002-.0118.003-.0174-.003-1.5038-.0575-2.9557-.15717-4.3784-.84495-12.094-5.1391-21.191-11.842-26.102-3.1544-2.311-6.9034-3.806-11.198-4.4313Z" fill="#1a1a1a" fill-rule="evenodd" stroke="#1a1a1a" stroke-width="5.6511"/><path d="M321.69,784.45c-25.354,1.6064-51.895-5.5683-72.194-19.934-20.27-14.345-33.919-35.229-40.847-59.628-1.703,2.7251-3.4073,5.4655-5.1178,8.2556-23.87,33.729,4.0904,65.321,28.736,82.202.74684.51151,1.5125,1.0164,2.2748,1.5017c23.738,15.88,55.559,30.103,80.17-4.6723c2.2354-2.7264,5.0299-5.285,6.9784-7.7246Z" fill="#01004e" fill-rule="evenodd"/><path d="M427.48,516.89c-12.617-9.2441-34.925-5.5225-62.38,15.327-8.5488,6.1535-17.734,13.713-27.211,22.217c3.5907,17.622,13.862,34.214,30.051,45.671c15.99,11.316,34.788,15.532,52.411,13.25c4.7326-11.204,8.9506-22.031,12.46-32.158c11.337-30.997,7.2856-55.063-5.3318-64.307Z" fill="#808080" fill-rule="evenodd"/><path d="M277.86,725.92c-6.3767-4.1893-16.023-3.9596-26.784,2.5069-24.755,13.797-43.546,28.511-62.822,61.745-2.964,15.392,11.429,33.139,28.088,41.231c1.7086.82998,3.4468,1.5645,5.187,2.178c9.1359,3.2211,18.48,3.2965,25.683-1.685.74094-.85,1.4635-1.7074,2.1731-2.551c21.997-26.152,29.15-49.356,35.163-77.231c3.1864-12.266.0999-21.735-6.6882-26.195Z" fill="#293ed2" fill-rule="evenodd"/><path d="M209.52,705.11c-9.3662,17.34-13.185,26.49-21.415,46.103-16.456,10.562-48.945-12.081-44.746-30.453c14.952-23.848,29.759-38.403,49.801-48.686c15.452-6.9484,42.9-2.7523,36.928,4.8575-9.1047,11.602-13.708,16.947-20.567,28.178Z" fill="#293ed2" fill-rule="evenodd"/><path d="M320.36,783.55c-13.238,14.6-20.597,21.245-36.356,35.53-4.4875,19.033,27.672,42.14,43.602,32.07c17.517-22.033,26.319-40.837,29.35-63.158c1.4135-16.883-11.673-41.373-16.863-33.21-7.9131,12.445-11.423,18.565-19.733,28.769Z" fill="#293ed2" fill-rule="evenodd"/><path d="M193.16,739.21c-9.3757.0969-18.647-2.5308-26.623-8.1751-7.5412-5.3369-12.941-12.67-16.065-20.953-2.3848,3.3339-4.7473,6.8883-7.1179,10.669-4.199,18.372,28.297,41.022,44.753,30.46c1.8819-4.4844,3.5134-8.3875,5.053-12.001Z" fill="#01004e" fill-rule="evenodd"/><path d="M293.64,810.32c3.027,8.8741,8.5888,16.744,16.564,22.388c7.5412,5.3369,16.253,7.9904,25.104,8.1818-2.3509,3.3578-4.9172,6.768-7.6945,10.261-15.93,10.07-48.098-13.042-43.611-32.075c3.6032-3.2662,6.7414-6.103,9.637-8.7568Z" fill="#01004e" fill-rule="evenodd"/><path d="M199.42,772.87c-3.7353,5.1663-7.439,10.881-11.164,17.304-2.964,15.392,11.429,33.139,28.088,41.231c1.7086.82998,3.4468,1.5644,5.187,2.178c9.1359,3.2211,18.48,3.2965,25.683-1.685.74095-.84999,1.4636-1.7074,2.1731-2.551c3.9178-4.6578,7.3542-9.2144,10.408-13.728-12.91.0878-25.868-3.6602-37.091-11.603-11.23-7.9476-19.074-18.932-23.283-31.145Z" fill="#01004e" fill-rule="evenodd"/><g transform="matrix(.46128 0.32645-.32645 0.46128 261.52 377.76)"><path d="M425.71,160.22c0,22.486-18.228,40.714-40.714,40.714s-40.714-18.228-40.714-40.714s18.228-40.714,40.714-40.714s40.714,18.228,40.714,40.714Z" transform="matrix(.94737 0 0 0.94737 17.063 279.15)" fill="#333"/><g transform="matrix(1.6364 0 0 1.6364-239.46-553.58)"><path d="M371.54,612.91h6.4453v-22.246l-7.0117,1.4062v-3.5938l6.9727-1.4062h3.9453v25.84h6.4453v3.3203h-16.797v-3.3203" fill="#3771c8"/></g></g><path d="M661.65,455.87c0,33.195-26.91,60.104-60.104,60.104-33.195,0-60.104-26.91-60.104-60.104c0-33.195,26.91-60.104,60.104-60.104c33.195,0,60.104,26.91,60.104,60.104Z" transform="matrix(.63812 0.45159-.40634 0.57418 139.59 107.41)" fill="#333" fill-rule="evenodd"/><path d="M661.65,455.87c0,33.195-26.91,60.104-60.104,60.104-33.195,0-60.104-26.91-60.104-60.104c0-33.195,26.91-60.104,60.104-60.104c33.195,0,60.104,26.91,60.104,60.104Z" transform="matrix(.46128 0.32645-.3047 0.43056 201.17 249.89)" fill="#1a1a1a" fill-rule="evenodd"/><path d="M661.65,455.87c0,33.195-26.91,60.104-60.104,60.104-33.195,0-60.104-26.91-60.104-60.104c0-33.195,26.91-60.104,60.104-60.104c33.195,0,60.104,26.91,60.104,60.104Z" transform="matrix(.46128 0.32645-.29792 0.42097 194.45 251.57)" fill="#666" fill-rule="evenodd"/><path d="M661.65,455.87c0,33.195-26.91,60.104-60.104,60.104-33.195,0-60.104-26.91-60.104-60.104c0-33.195,26.91-60.104,60.104-60.104c33.195,0,60.104,26.91,60.104,60.104Z" transform="matrix(.46128 0.32645-.29373 0.41506 194.33 255.64)" fill="#80b3ff" fill-rule="evenodd"/><path d="M364.68,631.22c-2.0645-9.68-14.935-3.2454-11.791,4.9861.53954,7.9709,9.3238,18.684.0891,24.722-3.7033.90912-7.3605,7.8639-.95236,6.1455c6.7394-5.0162,11.356-12.967,14.427-20.622c1.0176-5.0345.94506-10.716-1.7731-15.232Z" fill="#d5e5ff"/><path d="M323.67,639.26c-1.7456-3.1375-2.3134-7.4384-6.2721-8.6706-3.6216-.45562-5.4804,4.006-5.6861,7.0043-.43152,3.8579,1.3606,7.618,4.4386,9.9168c2.2655,1.9252,4.8614,3.3964,7.3002,5.0812c3.7482-.4954,4.05-5.4081,2.711-8.1803-.67422-1.7894-1.668-3.4313-2.4916-5.1515Z" fill="#d5e5ff"/><path d="M276.41,725.07c-6.3426-3.2713-15.362-2.631-25.333,3.3607-19.971,11.131-36.064,22.874-51.658,44.442-.46945.64929-.92896,1.3075-1.3976,1.9749-.43082.61352-.86107,1.2261-1.2914,1.8553-.096.14021-.1999.27703-.29585.41803-.32093.47205-.63998.93763-.9607,1.4187-.0852.12758-.16567.25678-.25082.385-.0321.0485-.0699.0956-.10202.14415-.43261.65268-.86253,1.3132-1.2949,1.9826-.0547.0848-.1043.17019-.159.25526-.41085.63813-.81447,1.2916-1.2253,1.9454-.46195.73575-.92822,1.4838-1.3903,2.2396-.46668.76345-.93528,1.5332-1.4023,2.3177-.4663.78336-.92704,1.5621-1.3938,2.367-.0926.481-.16227.95894-.22157,1.4442-.11974.97559-.17978,1.942-.16987,2.9302.01.98301.0855,1.9758.21622,2.9655.32681,2.4742,1.0161,4.9689,2.0177,7.4206.40065.98068.85354,1.9568,1.3492,2.9236.24786.48342.50795.95889.7782,1.4377.54049.9577,1.1288,1.9067,1.7533,2.8418c1.249,1.8701,2.6441,3.6837,4.185,5.428.004.004.0106.006.0144.0102.56977.64457,1.1648,1.2782,1.7697,1.9015c2.8485-16.106,10.259-33.818,22.035-50.456c15.707-22.194,35.783-37.701,54.427-43.953Z" opacity="0.38115" fill="#2b0000" fill-rule="evenodd"/><path d="M229.01,671.99c-5.9246-4.0648-24.275-5.1281-35.864.0832-16.864,8.6521-30.017,20.32-42.674,38.014-.0237.0331-.0477.0677-.0714.10091-.48034.67248-.9551,1.3671-1.4342,2.0571-.0911.13145-.18434.25711-.27544.38921-.37885.54848-.75582,1.104-1.1341,1.6637-.46664.69169-.93503,1.3932-1.4011,2.1022-.34118.51897-.68258,1.0405-1.0237,1.5688-.59287.91686-1.1849,1.8416-1.7779,2.7874-.45927,2.0094-.4766,4.0782-.12707,6.1408.05.29467.097.57715.16189.87177.32402,1.4772.84549,2.9488,1.5138,4.403.22141.48179.45903.95934.71454,1.436.0501.0933.0977.18547.14903.27855.47552.86329.99729,1.7034,1.5754,2.5428.003.005.0113.006.0144.0102.95616,1.3866,2.0425,2.7516,3.2387,4.0444c1.6802,1.8158,3.5705,3.524,5.6061,5.0708c8.1426,6.187,18.586,9.8271,26.898,7.7859c1.4844-.3644,2.902-.91603,4.2258-1.6608.26477-.14896.52506-.29824.78219-.46327c1.8818-4.4844,3.5134-8.3875,5.053-12.001c5.194-12.19,9.1211-20.727,16.346-34.103c6.8592-11.231,11.471-16.586,20.576-28.188c1.493-1.9024.90218-3.5797-1.0727-4.9346Z" fill="#2a0000" fill-opacity="0.38039" fill-rule="evenodd"/><path d="M329.55,771.22c-2.6529,3.9188-5.4215,7.7161-9.1882,12.341-10.211,11.262-16.956,17.805-26.725,26.758-1.3126,1.203-2.6486,2.4196-4.0874,3.7275-1.8071,1.6414-3.4771,3.1507-5.5496,5.0293-.0701.29738-.12432.59251-.17672.89174-.26209,1.4962-.31084,3.0165-.16079,4.5376.0304.30834.075.62096.12109.92944.0449.30025.0821.6005.14149.90061.001.004.0136.006.0144.0102.0595.2999.11716.5927.19072.89218.0754.30811.16867.6112.25858.91858.0887.30309.16644.60205.26879.90415.002.004.0129.006.0144.0102.10101.29753.20415.59945.31802.89573.20376.5313.43269,1.0559.67618,1.5819c7.0758-5.0816,15.312-12.981,23.171-22.653c11.746-14.457,19.452-28.923,20.713-37.675Z" fill="#290000" fill-opacity="0.1451" fill-rule="evenodd"/><path d="M433.56,554.8c-2.2795,10.918-2.8962,18.013-21.073,31.33c15.612-17.379,14.586-58.114,17.694-54.574c5.4071,1.7225,5.7635,11.825,3.3794,23.244Z" opacity="0.21312" fill="#fff"/><path d="M359.7,604.38c-20.779-12.731-46.964-8.9019-59.841,9.2929-12.886,18.208-7.7689,44.198,11.182,59.555-15.199-16.404-18.584-39.772-6.7857-56.444c11.789-16.658,34.931-21.253,55.444-12.404Z" fill="#2b2b2b" fill-rule="evenodd"/><path d="M512.86,578.79c0,10.651-3.198,19.286-7.1429,19.286s-7.1428-8.6345-7.1428-19.286c0-10.651,3.198-19.286,7.1428-19.286s7.1429,8.6345,7.1429,19.286Z" transform="matrix(.55724 0.093962-.093962 0.55724 119.92 408.03)" opacity="0.21312" fill="#fff"/><path d="M512.86,578.79c0,10.651-3.198,19.286-7.1429,19.286s-7.1428-8.6345-7.1428-19.286c0-10.651,3.198-19.286,7.1428-19.286s7.1429,8.6345,7.1429,19.286Z" transform="matrix(.66692 0.46129-.47589 0.61898 206.88 154.04)" opacity="0.21312" fill="#fff"/></g><script><![CDATA[!function(t,n){"object"==typeof exports&&"undefined"!=typeof module?module.exports=n():"function"==typeof define&&define.amd?define(n):((t="undefined"!=typeof globalThis?globalThis:t||self).__SVGATOR_PLAYER__=t.__SVGATOR_PLAYER__||{},t.__SVGATOR_PLAYER__["5c7f360c"]=n())}(this,(function(){"use strict";function t(t,n){var e=Object.keys(t);if(Object.getOwnPropertySymbols){var r=Object.getOwnPropertySymbols(t);n&&(r=r.filter((function(n){return Object.getOwnPropertyDescriptor(t,n).enumerable}))),e.push.apply(e,r)}return e}function n(n){for(var e=1;e<arguments.length;e++){var r=null!=arguments[e]?arguments[e]:{};e%2?t(Object(r),!0).forEach((function(t){o(n,t,r[t])})):Object.getOwnPropertyDescriptors?Object.defineProperties(n,Object.getOwnPropertyDescriptors(r)):t(Object(r)).forEach((function(t){Object.defineProperty(n,t,Object.getOwnPropertyDescriptor(r,t))}))}return n}function e(t){return(e="function"==typeof Symbol&&"symbol"==typeof Symbol.iterator?function(t){return typeof t}:function(t){return t&&"function"==typeof Symbol&&t.constructor===Symbol&&t!==Symbol.prototype?"symbol":typeof t})(t)}function r(t,n){if(!(t instanceof n))throw new TypeError("Cannot call a class as a function")}function i(t,n){for(var e=0;e<n.length;e++){var r=n[e];r.enumerable=r.enumerable||!1,r.configurable=!0,"value"in r&&(r.writable=!0),Object.defineProperty(t,r.key,r)}}function u(t,n,e){return n&&i(t.prototype,n),e&&i(t,e),t}function o(t,n,e){return n in t?Object.defineProperty(t,n,{value:e,enumerable:!0,configurable:!0,writable:!0}):t[n]=e,t}function a(t){return(a=Object.setPrototypeOf?Object.getPrototypeOf:function(t){return t.__proto__||Object.getPrototypeOf(t)})(t)}function l(t,n){return(l=Object.setPrototypeOf||function(t,n){return t.__proto__=n,t})(t,n)}function s(){if("undefined"==typeof Reflect||!Reflect.construct)return!1;if(Reflect.construct.sham)return!1;if("function"==typeof Proxy)return!0;try{return Boolean.prototype.valueOf.call(Reflect.construct(Boolean,[],(function(){}))),!0}catch(t){return!1}}function f(t,n,e){return(f=s()?Reflect.construct:function(t,n,e){var r=[null];r.push.apply(r,n);var i=new(Function.bind.apply(t,r));return e&&l(i,e.prototype),i}).apply(null,arguments)}function c(t,n){if(n&&("object"==typeof n||"function"==typeof n))return n;if(void 0!==n)throw new TypeError("Derived constructors may only return object or undefined");return function(t){if(void 0===t)throw new ReferenceError("this hasn't been initialised - super() hasn't been called");return t}(t)}function h(t,n,e){return(h="undefined"!=typeof Reflect&&Reflect.get?Reflect.get:function(t,n,e){var r=function(t,n){for(;!Object.prototype.hasOwnProperty.call(t,n)&&null!==(t=a(t)););return t}(t,n);if(r){var i=Object.getOwnPropertyDescriptor(r,n);return i.get?i.get.call(e):i.value}})(t,n,e||t)}function v(t){return function(t){if(Array.isArray(t))return y(t)}(t)||function(t){if("undefined"!=typeof Symbol&&null!=t[Symbol.iterator]||null!=t["@@iterator"])return Array.from(t)}(t)||function(t,n){if(!t)return;if("string"==typeof t)return y(t,n);var e=Object.prototype.toString.call(t).slice(8,-1);"Object"===e&&t.constructor&&(e=t.constructor.name);if("Map"===e||"Set"===e)return Array.from(t);if("Arguments"===e||/^(?:Ui|I)nt(?:8|16|32)(?:Clamped)?Array$/.test(e))return y(t,n)}(t)||function(){throw new TypeError("Invalid attempt to spread non-iterable instance.\nIn order to be iterable, non-array objects must have a [Symbol.iterator]() method.")}()}function y(t,n){(null==n||n>t.length)&&(n=t.length);for(var e=0,r=new Array(n);e<n;e++)r[e]=t[e];return r}Number.isInteger||(Number.isInteger=function(t){return"number"==typeof t&&isFinite(t)&&Math.floor(t)===t}),Number.EPSILON||(Number.EPSILON=2220446049250313e-31);var g=d(Math.pow(10,-6));function d(t){var n=arguments.length>1&&void 0!==arguments[1]?arguments[1]:6;if(Number.isInteger(t))return t;var e=Math.pow(10,n);return Math.round((+t+Number.EPSILON)*e)/e}function p(t,n){var e=arguments.length>2&&void 0!==arguments[2]?arguments[2]:g;return Math.abs(t-n)<e}var m=Math.PI/180;function b(t){return t}function w(t,n,e){var r=1-e;return 3*e*r*(t*r+n*e)+e*e*e}function x(){var t=arguments.length>0&&void 0!==arguments[0]?arguments[0]:0,n=arguments.length>1&&void 0!==arguments[1]?arguments[1]:0,e=arguments.length>2&&void 0!==arguments[2]?arguments[2]:1,r=arguments.length>3&&void 0!==arguments[3]?arguments[3]:1;return t<0||t>1||e<0||e>1?null:p(t,n)&&p(e,r)?b:function(i){if(i<=0)return t>0?i*n/t:0===n&&e>0?i*r/e:0;if(i>=1)return e<1?1+(i-1)*(r-1)/(e-1):1===e&&t<1?1+(i-1)*(n-1)/(t-1):1;for(var u,o=0,a=1;o<a;){var l=w(t,e,u=(o+a)/2);if(p(i,l))break;l<i?o=u:a=u}return w(n,r,u)}}function A(){return 1}function k(t){return 1===t?1:0}function _(){var t=arguments.length>0&&void 0!==arguments[0]?arguments[0]:1,n=arguments.length>1&&void 0!==arguments[1]?arguments[1]:0;if(1===t){if(0===n)return k;if(1===n)return A}var e=1/t;return function(t){return t>=1?1:(t+=n*e)-t%e}}var S=Math.sin,O=Math.cos,j=Math.acos,M=Math.asin,P=Math.tan,E=Math.atan2,I=Math.PI/180,R=180/Math.PI,F=Math.sqrt,N=function(){function t(){var n=arguments.length>0&&void 0!==arguments[0]?arguments[0]:1,e=arguments.length>1&&void 0!==arguments[1]?arguments[1]:0,i=arguments.length>2&&void 0!==arguments[2]?arguments[2]:0,u=arguments.length>3&&void 0!==arguments[3]?arguments[3]:1,o=arguments.length>4&&void 0!==arguments[4]?arguments[4]:0,a=arguments.length>5&&void 0!==arguments[5]?arguments[5]:0;r(this,t),this.m=[n,e,i,u,o,a],this.i=null,this.w=null,this.s=null}return u(t,[{key:"determinant",get:function(){var t=this.m;return t[0]*t[3]-t[1]*t[2]}},{key:"isIdentity",get:function(){if(null===this.i){var t=this.m;this.i=1===t[0]&&0===t[1]&&0===t[2]&&1===t[3]&&0===t[4]&&0===t[5]}return this.i}},{key:"point",value:function(t,n){var e=this.m;return{x:e[0]*t+e[2]*n+e[4],y:e[1]*t+e[3]*n+e[5]}}},{key:"translateSelf",value:function(){var t=arguments.length>0&&void 0!==arguments[0]?arguments[0]:0,n=arguments.length>1&&void 0!==arguments[1]?arguments[1]:0;if(!t&&!n)return this;var e=this.m;return e[4]+=e[0]*t+e[2]*n,e[5]+=e[1]*t+e[3]*n,this.w=this.s=this.i=null,this}},{key:"rotateSelf",value:function(){var t=arguments.length>0&&void 0!==arguments[0]?arguments[0]:0;if(t%=360){var n=S(t*=I),e=O(t),r=this.m,i=r[0],u=r[1];r[0]=i*e+r[2]*n,r[1]=u*e+r[3]*n,r[2]=r[2]*e-i*n,r[3]=r[3]*e-u*n,this.w=this.s=this.i=null}return this}},{key:"scaleSelf",value:function(){var t=arguments.length>0&&void 0!==arguments[0]?arguments[0]:1,n=arguments.length>1&&void 0!==arguments[1]?arguments[1]:1;if(1!==t||1!==n){var e=this.m;e[0]*=t,e[1]*=t,e[2]*=n,e[3]*=n,this.w=this.s=this.i=null}return this}},{key:"skewSelf",value:function(t,n){if(n%=360,(t%=360)||n){var e=this.m,r=e[0],i=e[1],u=e[2],o=e[3];t&&(t=P(t*I),e[2]+=r*t,e[3]+=i*t),n&&(n=P(n*I),e[0]+=u*n,e[1]+=o*n),this.w=this.s=this.i=null}return this}},{key:"resetSelf",value:function(){var t=arguments.length>0&&void 0!==arguments[0]?arguments[0]:1,n=arguments.length>1&&void 0!==arguments[1]?arguments[1]:0,e=arguments.length>2&&void 0!==arguments[2]?arguments[2]:0,r=arguments.length>3&&void 0!==arguments[3]?arguments[3]:1,i=arguments.length>4&&void 0!==arguments[4]?arguments[4]:0,u=arguments.length>5&&void 0!==arguments[5]?arguments[5]:0,o=this.m;return o[0]=t,o[1]=n,o[2]=e,o[3]=r,o[4]=i,o[5]=u,this.w=this.s=this.i=null,this}},{key:"recomposeSelf",value:function(){var t=arguments.length>0&&void 0!==arguments[0]?arguments[0]:null,n=arguments.length>1&&void 0!==arguments[1]?arguments[1]:null,e=arguments.length>2&&void 0!==arguments[2]?arguments[2]:null,r=arguments.length>3&&void 0!==arguments[3]?arguments[3]:null,i=arguments.length>4&&void 0!==arguments[4]?arguments[4]:null;return this.isIdentity||this.resetSelf(),t&&(t.x||t.y)&&this.translateSelf(t.x,t.y),n&&this.rotateSelf(n),e&&(e.x&&this.skewSelf(e.x,0),e.y&&this.skewSelf(0,e.y)),!r||1===r.x&&1===r.y||this.scaleSelf(r.x,r.y),i&&(i.x||i.y)&&this.translateSelf(i.x,i.y),this}},{key:"decompose",value:function(){var t=arguments.length>0&&void 0!==arguments[0]?arguments[0]:0,n=arguments.length>1&&void 0!==arguments[1]?arguments[1]:0,e=this.m,r=e[0]*e[0]+e[1]*e[1],i=[[e[0],e[1]],[e[2],e[3]]],u=F(r);if(0===u)return{origin:{x:d(e[4]),y:d(e[5])},translate:{x:d(t),y:d(n)},scale:{x:0,y:0},skew:{x:0,y:0},rotate:0};i[0][0]/=u,i[0][1]/=u;var o=e[0]*e[3]-e[1]*e[2]<0;o&&(u=-u);var a=i[0][0]*i[1][0]+i[0][1]*i[1][1];i[1][0]-=i[0][0]*a,i[1][1]-=i[0][1]*a;var l=F(i[1][0]*i[1][0]+i[1][1]*i[1][1]);if(0===l)return{origin:{x:d(e[4]),y:d(e[5])},translate:{x:d(t),y:d(n)},scale:{x:d(u),y:0},skew:{x:0,y:0},rotate:0};i[1][0]/=l,i[1][1]/=l,a/=l;var s=0;return i[1][1]<0?(s=j(i[1][1])*R,i[0][1]<0&&(s=360-s)):s=M(i[0][1])*R,o&&(s=-s),a=E(a,F(i[0][0]*i[0][0]+i[0][1]*i[0][1]))*R,o&&(a=-a),{origin:{x:d(e[4]),y:d(e[5])},translate:{x:d(t),y:d(n)},scale:{x:d(u),y:d(l)},skew:{x:d(a),y:0},rotate:d(s)}}},{key:"clone",value:function(){var t=this.m;return new this.constructor(t[0],t[1],t[2],t[3],t[4],t[5])}},{key:"toString",value:function(){var t=arguments.length>0&&void 0!==arguments[0]?arguments[0]:" ";if(null===this.s){var n=this.m.map((function(t){return d(t)}));1===n[0]&&0===n[1]&&0===n[2]&&1===n[3]?this.s="translate("+n[4]+t+n[5]+")":this.s="matrix("+n.join(t)+")"}return this.s}}],[{key:"create",value:function(t){return t?Array.isArray(t)?f(this,v(t)):t instanceof this?t.clone():(new this).recomposeSelf(t.origin,t.rotate,t.skew,t.scale,t.translate):new this}}]),t}();function T(t,n,e){return t>=.5?e:n}function q(t,n,e){return 0===t||n===e?n:t*(e-n)+n}function B(t,n,e){var r=q(t,n,e);return r<=0?0:r}function L(t,n,e){var r=q(t,n,e);return r<=0?0:r>=1?1:r}function C(t,n,e){return 0===t?n:1===t?e:{x:q(t,n.x,e.x),y:q(t,n.y,e.y)}}function D(t,n,e){var r=function(t,n,e){return Math.round(q(t,n,e))}(t,n,e);return r<=0?0:r>=255?255:r}function z(t,n,e){return 0===t?n:1===t?e:{r:D(t,n.r,e.r),g:D(t,n.g,e.g),b:D(t,n.b,e.b),a:q(t,null==n.a?1:n.a,null==e.a?1:e.a)}}function V(t,n){for(var e=[],r=0;r<t;r++)e.push(n);return e}function G(t,n){if(--n<=0)return t;var e=(t=Object.assign([],t)).length;do{for(var r=0;r<e;r++)t.push(t[r])}while(--n>0);return t}var Y,$=function(){function t(n){r(this,t),this.list=n,this.length=n.length}return u(t,[{key:"setAttribute",value:function(t,n){for(var e=this.list,r=0;r<this.length;r++)e[r].setAttribute(t,n)}},{key:"removeAttribute",value:function(t){for(var n=this.list,e=0;e<this.length;e++)n[e].removeAttribute(t)}},{key:"style",value:function(t,n){for(var e=this.list,r=0;r<this.length;r++)e[r].style[t]=n}}]),t}(),U=/-./g,Q=function(t,n){return n.toUpperCase()};function H(t){return"function"==typeof t?t:T}function J(t){return t?"function"==typeof t?t:Array.isArray(t)?function(t){var n=arguments.length>1&&void 0!==arguments[1]?arguments[1]:b;if(!Array.isArray(t))return n;switch(t.length){case 1:return _(t[0])||n;case 2:return _(t[0],t[1])||n;case 4:return x(t[0],t[1],t[2],t[3])||n}return n}(t,null):function(t,n){var e=arguments.length>2&&void 0!==arguments[2]?arguments[2]:b;switch(t){case"linear":return b;case"steps":return _(n.steps||1,n.jump||0)||e;case"bezier":case"cubic-bezier":return x(n.x1||0,n.y1||0,n.x2||0,n.y2||0)||e}return e}(t.type,t.value,null):null}function Z(t,n,e){var r=arguments.length>3&&void 0!==arguments[3]&&arguments[3],i=n.length-1;if(t<=n[0].t)return r?[0,0,n[0].v]:n[0].v;if(t>=n[i].t)return r?[i,1,n[i].v]:n[i].v;var u,o=n[0],a=null;for(u=1;u<=i;u++){if(!(t>n[u].t)){a=n[u];break}o=n[u]}return null==a?r?[i,1,n[i].v]:n[i].v:o.t===a.t?r?[u,1,a.v]:a.v:(t=(t-o.t)/(a.t-o.t),o.e&&(t=o.e(t)),r?[u,t,e(t,o.v,a.v)]:e(t,o.v,a.v))}function K(t,n){var e=arguments.length>2&&void 0!==arguments[2]?arguments[2]:null;return t&&t.length?"function"!=typeof n?null:("function"!=typeof e&&(e=null),function(r){var i=Z(r,t,n);return null!=i&&e&&(i=e(i)),i}):null}function W(t,n){return t.t-n.t}function X(t,n,r,i,u){var o,a="@"===r[0],l="#"===r[0],s=Y[r],f=T;switch(a?(o=r.substr(1),r=o.replace(U,Q)):l&&(r=r.substr(1)),e(s)){case"function":if(f=s(i,u,Z,J,r,a,n,t),l)return f;break;case"string":f=K(i,H(s));break;case"object":if((f=K(i,H(s.i),s.f))&&"function"==typeof s.u)return s.u(n,f,r,a,t)}return f?function(t,n,e){if(arguments.length>3&&void 0!==arguments[3]&&arguments[3])return t instanceof $?function(r){return t.style(n,e(r))}:function(r){return t.style[n]=e(r)};if(Array.isArray(n)){var r=n.length;return function(i){var u=e(i);if(null==u)for(var o=0;o<r;o++)t[o].removeAttribute(n);else for(var a=0;a<r;a++)t[a].setAttribute(n,u)}}return function(r){var i=e(r);null==i?t.removeAttribute(n):t.setAttribute(n,i)}}(n,r,f,a):null}function tt(t,n,r,i){if(!i||"object"!==e(i))return null;var u=null,o=null;return Array.isArray(i)?o=function(t){if(!t||!t.length)return null;for(var n=0;n<t.length;n++)t[n].e&&(t[n].e=J(t[n].e));return t.sort(W)}(i):(o=i.keys,u=i.data||null),o?X(t,n,r,o,u):null}function nt(t,n,e){if(!e)return null;var r=[];for(var i in e)if(e.hasOwnProperty(i)){var u=tt(t,n,i,e[i]);u&&r.push(u)}return r.length?r:null}function et(t,n){if(!n.settings.duration||n.settings.duration<0)return null;var e,r,i,u,o,a=function(t,n){if(!n)return null;var e=[];if(Array.isArray(n))for(var r=n.length,i=0;i<r;i++){var u=n[i];if(2===u.length){var o=null;if("string"==typeof u[0])o=t.getElementById(u[0]);else if(Array.isArray(u[0])){o=[];for(var a=0;a<u[0].length;a++)if("string"==typeof u[0][a]){var l=t.getElementById(u[0][a]);l&&o.push(l)}o=o.length?1===o.length?o[0]:new $(o):null}if(o){var s=nt(t,o,u[1]);s&&(e=e.concat(s))}}}else for(var f in n)if(n.hasOwnProperty(f)){var c=t.getElementById(f);if(c){var h=nt(t,c,n[f]);h&&(e=e.concat(h))}}return e.length?e:null}(t,n.elements);return a?(e=a,r=n.settings,i=r.duration,u=e.length,o=null,function(t,n){var a=r.iterations||1/0,l=(r.alternate&&a%2==0)^r.direction>0?i:0,s=t%i,f=1+(t-s)/i;n*=r.direction,r.alternate&&f%2==0&&(n=-n);var c=!1;if(f>a)s=l,c=!0,-1===r.fill&&(s=r.direction>0?0:i);else if(n<0&&(s=i-s),s===o)return!1;o=s;for(var h=0;h<u;h++)e[h](s);return c}):null}function rt(t,n){if(Y=n,!t||!t.root||!Array.isArray(t.animations))return null;var e=function(t){for(var n=document.getElementsByTagName("svg"),e=0;e<n.length;e++)if(n[e].id===t.root&&!n[e].svgatorAnimation)return n[e].svgatorAnimation=!0,n[e];return null}(t);if(!e)return null;var r=t.animations.map((function(t){return et(e,t)})).filter((function(t){return!!t}));return r.length?{svg:e,animations:r,animationSettings:t.animationSettings,options:t.options||void 0}:null}function it(t){return+("0x"+(t.replace(/[^0-9a-fA-F]+/g,"")||27))}function ut(t,n,e){return!t||!e||n>t.length?t:t.substring(0,n)+ut(t.substring(n+1),e,e)}function ot(t){var n=arguments.length>1&&void 0!==arguments[1]?arguments[1]:27;return!t||t%n?t%n:ot(t/n,n)}function at(t,n,e){if(t&&t.length){var r=it(e),i=it(n),u=ot(r)+5,o=ut(t,ot(r,5),u);return o=o.replace(/\x7c$/g,"==").replace(/\x2f$/g,"="),o=function(t,n,e){var r=+("0x"+t.substring(0,4));t=t.substring(4);for(var i=n%r+e%27,u=[],o=0;o<t.length;o+=2)if("|"!==t[o]){var a=+("0x"+t[o]+t[o+1])-i;u.push(a)}else{var l=+("0x"+t.substring(o+1,o+1+4))-i;o+=3,u.push(l)}return String.fromCharCode.apply(String,u)}(o=(o=atob(o)).replace(/[\x41-\x5A]/g,""),i,r),o=JSON.parse(o)}}var lt=[{key:"alternate",def:!1},{key:"fill",def:1},{key:"iterations",def:0},{key:"direction",def:1},{key:"speed",def:1},{key:"fps",def:100}],st=function(){function t(n,e){var i=this,u=arguments.length>2&&void 0!==arguments[2]?arguments[2]:null;r(this,t),this._id=0,this._running=!1,this._rollingBack=!1,this._animations=n,this._settings=e,(!u||u<"2022-05-02")&&delete this._settings.speed,lt.forEach((function(t){i._settings[t.key]=i._settings[t.key]||t.def})),this.duration=e.duration,this.offset=e.offset||0,this.rollbackStartOffset=0}return u(t,[{key:"alternate",get:function(){return this._settings.alternate}},{key:"fill",get:function(){return this._settings.fill}},{key:"iterations",get:function(){return this._settings.iterations}},{key:"direction",get:function(){return this._settings.direction}},{key:"speed",get:function(){return this._settings.speed}},{key:"fps",get:function(){return this._settings.fps}},{key:"maxFiniteDuration",get:function(){return this.iterations>0?this.iterations*this.duration:this.duration}},{key:"_apply",value:function(t){for(var n=arguments.length>1&&void 0!==arguments[1]?arguments[1]:{},e=this._animations,r=e.length,i=0,u=0;u<r;u++)n[u]?i++:(n[u]=e[u](t,1),n[u]&&i++);return i}},{key:"_rollback",value:function(t){var n=this,e=1/0,r=null;this.rollbackStartOffset=t,this._rollingBack=!0,this._running=!0;this._id=window.requestAnimationFrame((function i(u){if(n._rollingBack){null==r&&(r=u);var o=Math.round(t-(u-r)*n.speed);if(o>n.duration&&e!==1/0){var a=!!n.alternate&&o/n.duration%2>1,l=o%n.duration;o=(l+=a?n.duration:0)||n.duration}var s=(n.fps?1e3/n.fps:0)*n.speed,f=Math.max(0,o);f<e-s&&(n.offset=f,e=f,n._apply(f));var c=n.iterations>0&&-1===n.fill&&o>=n.maxFiniteDuration;(o<=0||n.offset<o||c)&&n.stop(),n._id=window.requestAnimationFrame(i)}}))}},{key:"_start",value:function(){var t=this,n=arguments.length>0&&void 0!==arguments[0]?arguments[0]:0,e=-1/0,r=null,i={};this._running=!0;var u=function u(o){null==r&&(r=o);var a=Math.round((o-r)*t.speed+n),l=(t.fps?1e3/t.fps:0)*t.speed;if(a>e+l&&!t._rollingBack&&(t.offset=a,e=a,t._apply(a,i)===t._animations.length))return void t.pause(!0);t._id=window.requestAnimationFrame(u)};this._id=window.requestAnimationFrame(u)}},{key:"_pause",value:function(){this._id&&window.cancelAnimationFrame(this._id),this._running=!1}},{key:"play",value:function(){if(!this._running)return this._rollingBack?this._rollback(this.offset):this._start(this.offset)}},{key:"stop",value:function(){this._pause(),this.offset=0,this.rollbackStartOffset=0,this._rollingBack=!1,this._apply(0)}},{key:"reachedToEnd",value:function(){return this.iterations>0&&this.offset>=this.iterations*this.duration}},{key:"restart",value:function(){var t=arguments.length>0&&void 0!==arguments[0]&&arguments[0];this.stop(t),this.play(t)}},{key:"pause",value:function(){this._pause()}},{key:"reverse",value:function(){this.direction=-this.direction}}],[{key:"build",value:function(t,n){delete t.animationSettings,t.options=at(t.options,t.root,"5c7f360c"),t.animations.map((function(n){n.settings=at(n.s,t.root,"5c7f360c"),delete n.s,t.animationSettings||(t.animationSettings=n.settings)}));var e=t.version;if(!(t=rt(t,n)))return null;var r=t.options||{},i=new this(t.animations,t.animationSettings,e);return{el:t.svg,options:r,player:i}}},{key:"push",value:function(t){return this.build(t)}},{key:"init",value:function(){var t=this,n=window.__SVGATOR_PLAYER__&&window.__SVGATOR_PLAYER__["5c7f360c"];Array.isArray(n)&&n.splice(0).forEach((function(n){return t.build(n)}))}}]),t}();function ft(t){return d(t)+""}function ct(t){var n=arguments.length>1&&void 0!==arguments[1]?arguments[1]:" ";return t&&t.length?t.map(ft).join(n):""}function ht(t){if(!t)return"transparent";if(null==t.a||t.a>=1){var n=function(t){return 1===(t=parseInt(t).toString(16)).length?"0"+t:t},e=function(t){return t.charAt(0)===t.charAt(1)},r=n(t.r),i=n(t.g),u=n(t.b);return e(r)&&e(i)&&e(u)&&(r=r.charAt(0),i=i.charAt(0),u=u.charAt(0)),"#"+r+i+u}return"rgba("+t.r+","+t.g+","+t.b+","+t.a+")"}function vt(t){return t?"url(#"+t+")":"none"}!function(){for(var t=0,n=["ms","moz","webkit","o"],e=0;e<n.length&&!window.requestAnimationFrame;++e)window.requestAnimationFrame=window[n[e]+"RequestAnimationFrame"],window.cancelAnimationFrame=window[n[e]+"CancelAnimationFrame"]||window[n[e]+"CancelRequestAnimationFrame"];window.requestAnimationFrame||(window.requestAnimationFrame=function(n){var e=Date.now(),r=Math.max(0,16-(e-t)),i=window.setTimeout((function(){n(e+r)}),r);return t=e+r,i},window.cancelAnimationFrame=window.clearTimeout)}();var yt={f:null,i:function(t,n,e){return 0===t?n:1===t?e:{x:B(t,n.x,e.x),y:B(t,n.y,e.y)}},u:function(t,n){return function(e){var r=n(e);t.setAttribute("rx",ft(r.x)),t.setAttribute("ry",ft(r.y))}}},gt={f:null,i:function(t,n,e){return 0===t?n:1===t?e:{width:B(t,n.width,e.width),height:B(t,n.height,e.height)}},u:function(t,n){return function(e){var r=n(e);t.setAttribute("width",ft(r.width)),t.setAttribute("height",ft(r.height))}}};Object.freeze({M:2,L:2,Z:0,H:1,V:1,C:6,Q:4,T:2,S:4,A:7});var dt={},pt=null;function mt(t){var n=function(){if(pt)return pt;if("object"!==("undefined"==typeof document?"undefined":e(document))||!document.createElementNS)return{};var t=document.createElementNS("http://www.w3.org/2000/svg","svg");return t&&t.style?(t.style.position="absolute",t.style.opacity="0.01",t.style.zIndex="-9999",t.style.left="-9999px",t.style.width="1px",t.style.height="1px",pt={svg:t}):{}}().svg;if(!n)return function(t){return null};var r=document.createElementNS(n.namespaceURI,"path");r.setAttributeNS(null,"d",t),r.setAttributeNS(null,"fill","none"),r.setAttributeNS(null,"stroke","none"),n.appendChild(r);var i=r.getTotalLength();return function(t){var n=r.getPointAtLength(i*t);return{x:n.x,y:n.y}}}function bt(t){return dt[t]?dt[t]:dt[t]=mt(t)}function wt(t,n,e,r){if(!t||!r)return!1;var i=["M",t.x,t.y];if(n&&e&&(i.push("C"),i.push(n.x),i.push(n.y),i.push(e.x),i.push(e.y)),n?!e:e){var u=n||e;i.push("Q"),i.push(u.x),i.push(u.y)}return n||e||i.push("L"),i.push(r.x),i.push(r.y),i.join(" ")}function xt(t,n,e,r){var i=arguments.length>4&&void 0!==arguments[4]?arguments[4]:1,u=wt(t,n,e,r),o=bt(u);try{return o(i)}catch(t){return null}}function At(t,n,e){return t+(n-t)*e}function kt(t,n,e){var r=arguments.length>3&&void 0!==arguments[3]&&arguments[3],i={x:At(t.x,n.x,e),y:At(t.y,n.y,e)};return r&&(i.a=_t(t,n)),i}function _t(t,n){return Math.atan2(n.y-t.y,n.x-t.x)}function St(t,n,e,r){var i=1-r;return i*i*t+2*i*r*n+r*r*e}function Ot(t,n,e,r){return 2*(1-r)*(n-t)+2*r*(e-n)}function jt(t,n,e,r){var i=arguments.length>4&&void 0!==arguments[4]&&arguments[4],u=xt(t,n,null,e,r);return u||(u={x:St(t.x,n.x,e.x,r),y:St(t.y,n.y,e.y,r)}),i&&(u.a=Mt(t,n,e,r)),u}function Mt(t,n,e,r){return Math.atan2(Ot(t.y,n.y,e.y,r),Ot(t.x,n.x,e.x,r))}function Pt(t,n,e,r,i){var u=i*i;return i*u*(r-t+3*(n-e))+3*u*(t+e-2*n)+3*i*(n-t)+t}function Et(t,n,e,r,i){var u=1-i;return 3*(u*u*(n-t)+2*u*i*(e-n)+i*i*(r-e))}function It(t,n,e,r,i){var u=arguments.length>5&&void 0!==arguments[5]&&arguments[5],o=xt(t,n,e,r,i);return o||(o={x:Pt(t.x,n.x,e.x,r.x,i),y:Pt(t.y,n.y,e.y,r.y,i)}),u&&(o.a=Rt(t,n,e,r,i)),o}function Rt(t,n,e,r,i){return Math.atan2(Et(t.y,n.y,e.y,r.y,i),Et(t.x,n.x,e.x,r.x,i))}function Ft(t,n,e){var r=arguments.length>3&&void 0!==arguments[3]&&arguments[3];if(Tt(n)){if(qt(e))return jt(n,e.start,e,t,r)}else if(Tt(e)){if(Bt(n))return jt(n,n.end,e,t,r)}else{if(Bt(n))return qt(e)?It(n,n.end,e.start,e,t,r):jt(n,n.end,e,t,r);if(qt(e))return jt(n,e.start,e,t,r)}return kt(n,e,t,r)}function Nt(t,n,e){var r=Ft(t,n,e,!0);return r.a=function(t){return arguments.length>1&&void 0!==arguments[1]&&arguments[1]?t+Math.PI:t}(r.a)/m,r}function Tt(t){return!t.type||"corner"===t.type}function qt(t){return null!=t.start&&!Tt(t)}function Bt(t){return null!=t.end&&!Tt(t)}var Lt=new N;var Ct={f:ft,i:q},Dt={f:ft,i:L};function zt(t,n,e){return t.map((function(t){return function(t,n,e){var r=t.v;if(!r||"g"!==r.t||r.s||!r.v||!r.r)return t;var i=e.getElementById(r.r),u=i&&i.querySelectorAll("stop")||[];return r.s=r.v.map((function(t,n){var e=u[n]&&u[n].getAttribute("offset");return{c:t,o:e=d(parseInt(e)/100)}})),delete r.v,t}(t,0,e)}))}var Vt={gt:"gradientTransform",c:{x:"cx",y:"cy"},rd:"r",f:{x:"x1",y:"y1"},to:{x:"x2",y:"y2"}};function Gt(t,n,r,i,u,o,a,l){return zt(t,0,l),n=function(t,n,e){for(var r,i,u,o=t.length-1,a={},l=0;l<=o;l++)(r=t[l]).e&&(r.e=n(r.e)),r.v&&"g"===(i=r.v).t&&i.r&&(u=e.getElementById(i.r))&&(a[i.r]={e:u,s:u.querySelectorAll("stop")});return a}(t,i,l),function(i){var u=r(i,t,Yt);if(!u)return"none";if("c"===u.t)return ht(u.v);if("g"===u.t){if(!n[u.r])return vt(u.r);var o=n[u.r];return function(t,n){for(var e=t.s,r=e.length;r<n.length;r++){var i=e[e.length-1].cloneNode();i.id=Qt(i.id),t.e.appendChild(i),e=t.s=t.e.querySelectorAll("stop")}for(var u=0,o=e.length,a=n.length-1;u<o;u++)e[u].setAttribute("stop-color",ht(n[Math.min(u,a)].c)),e[u].setAttribute("offset",n[Math.min(u,a)].o)}(o,u.s),Object.keys(Vt).forEach((function(t){if(void 0!==u[t])if("object"!==e(Vt[t])){var n,r="gt"===t?(n=u[t],Array.isArray(n)?"matrix("+n.join(" ")+")":""):u[t],i=Vt[t];o.e.setAttribute(i,r)}else Object.keys(Vt[t]).forEach((function(n){if(void 0!==u[t][n]){var e=u[t][n],r=Vt[t][n];o.e.setAttribute(r,e)}}))})),vt(u.r)}return"none"}}function Yt(t,e,r){if(0===t)return e;if(1===t)return r;if(e&&r){var i=e.t;if(i===r.t)switch(e.t){case"c":return{t:i,v:z(t,e.v,r.v)};case"g":if(e.r===r.r){var u={t:i,s:$t(t,e.s,r.s),r:e.r};return e.gt&&r.gt&&(u.gt=function(t,n,e){var r=n.length;if(r!==e.length)return T(t,n,e);for(var i=new Array(r),u=0;u<r;u++)i[u]=q(t,n[u],e[u]);return i}(t,e.gt,r.gt)),e.c?(u.c=C(t,e.c,r.c),u.rd=B(t,e.rd,r.rd)):e.f&&(u.f=C(t,e.f,r.f),u.to=C(t,e.to,r.to)),u}}if("c"===e.t&&"g"===r.t||"c"===r.t&&"g"===e.t){var o="c"===e.t?e:r,a="g"===e.t?n({},e):n({},r),l=a.s.map((function(t){return{c:o.v,o:t.o}}));return a.s="c"===e.t?$t(t,l,a.s):$t(t,a.s,l),a}}return T(t,e,r)}function $t(t,n,e){if(n.length===e.length)return n.map((function(n,r){return Ut(t,n,e[r])}));for(var r=Math.max(n.length,e.length),i=[],u=0;u<r;u++){var o=Ut(t,n[Math.min(u,n.length-1)],e[Math.min(u,e.length-1)]);i.push(o)}return i}function Ut(t,n,e){return{o:L(t,n.o,e.o||0),c:z(t,n.c,e.c||{})}}function Qt(t){return t.replace(/-fill-([0-9]+)$/,(function(t,n){return"-fill-"+(+n+1)}))}var Ht={fill:Gt,"fill-opacity":Dt,stroke:Gt,"stroke-opacity":Dt,"stroke-width":Ct,"stroke-dashoffset":{f:ft,i:q},"stroke-dasharray":{f:function(t){var n=arguments.length>1&&void 0!==arguments[1]?arguments[1]:" ";return t&&t.length>0&&(t=t.map((function(t){return d(t,4)}))),ct(t,n)},i:function(t,n,e){var r,i,u,o=n.length,a=e.length;if(o!==a)if(0===o)n=V(o=a,0);else if(0===a)a=o,e=V(o,0);else{var l=(u=(r=o)*(i=a)/function(t,n){for(var e;n;)e=n,n=t%n,t=e;return t||1}(r,i))<0?-u:u;n=G(n,Math.floor(l/o)),e=G(e,Math.floor(l/a)),o=a=l}for(var s=[],f=0;f<o;f++)s.push(d(B(t,n[f],e[f])));return s}},opacity:Dt,transform:function(t,n,r,i){if(!(t=function(t,n){if(!t||"object"!==e(t))return null;var r=!1;for(var i in t)t.hasOwnProperty(i)&&(t[i]&&t[i].length?(t[i].forEach((function(t){t.e&&(t.e=n(t.e))})),r=!0):delete t[i]);return r?t:null}(t,i)))return null;var u=function(e,i,u){var o=arguments.length>3&&void 0!==arguments[3]?arguments[3]:null;return t[e]?r(i,t[e],u):n&&n[e]?n[e]:o};return n&&n.a&&t.o?function(n){var e=r(n,t.o,Nt);return Lt.recomposeSelf(e,u("r",n,q,0)+e.a,u("k",n,C),u("s",n,C),u("t",n,C)).toString()}:function(t){return Lt.recomposeSelf(u("o",t,Ft,null),u("r",t,q,0),u("k",t,C),u("s",t,C),u("t",t,C)).toString()}},r:Ct,"#size":gt,"#radius":yt,_:function(t,n){if(Array.isArray(t))for(var e=0;e<t.length;e++)this[t[e]]=n;else this[t]=n}},Jt=function(t){!function(t,n){if("function"!=typeof n&&null!==n)throw new TypeError("Super expression must either be null or a function");t.prototype=Object.create(n&&n.prototype,{constructor:{value:t,writable:!0,configurable:!0}}),n&&l(t,n)}(o,t);var n,e,i=(n=o,e=s(),function(){var t,r=a(n);if(e){var i=a(this).constructor;t=Reflect.construct(r,arguments,i)}else t=r.apply(this,arguments);return c(this,t)});function o(){return r(this,o),i.apply(this,arguments)}return u(o,null,[{key:"build",value:function(t){var n=h(a(o),"build",this).call(this,t,Ht);if(!n)return null;n.el,n.options,function(t,n,e){t.play()}(n.player)}}]),o}(st);return Jt.init(),Jt}));
(function(s,i,o,w,a,b){w[o]=w[o]||{};w[o][s]=w[o][s]||[];w[o][s].push(i);})('5c7f360c',{"root":"eaXrMD4k59q1","version":"2022-05-04","animations":[{"elements":{"eaXrMD4k59q2":{"transform":{"data":{"s":{"x":7.913335,"y":7.649523}},"keys":{"o":[{"t":2900,"v":{"x":-50.506042,"y":265.377026,"type":"corner"}},{"t":4000,"v":{"x":-50.506042,"y":52.158858,"type":"corner"}},{"t":4600,"v":{"x":-50.506042,"y":265.358858,"type":"corner"}},{"t":5000,"v":{"x":-55.038256,"y":233.725946,"type":"corner"}}]}}},"eaXrMD4k59q3":{"opacity":[{"t":0,"v":0},{"t":1500,"v":1},{"t":2900,"v":1},{"t":3800,"v":0},{"t":4000,"v":0},{"t":4900,"v":1}]},"eaXrMD4k59q4":{"transform":{"data":{"o":{"x":24.447999,"y":19.442498,"type":"corner"},"t":{"x":-24.447999,"y":-19.442498}},"keys":{"r":[{"t":0,"v":0,"e":[1,0,0,1]},{"t":2500,"v":180},{"t":5000,"v":360}]}}},"eaXrMD4k59q69":{"opacity":[{"t":2600,"v":0},{"t":3000,"v":1}]},"eaXrMD4k59q70":{"transform":{"data":{"o":{"x":441.40141,"y":14.792345,"type":"corner"},"r":-51.448937,"t":{"x":-441.401407,"y":-14.792344}},"keys":{"s":[{"t":2600,"v":{"x":1,"y":1},"e":[0,0,1,2]},{"t":2990,"v":{"x":8.15643,"y":3.660221}}]}},"opacity":[{"t":3000,"v":0.75,"e":[0,0,0.58,1]},{"t":4500,"v":0}]},"eaXrMD4k59q72":{"transform":{"data":{"r":-73.634482,"s":{"x":0.334482,"y":0.334482},"t":{"x":-712.437996,"y":1090.444723}},"keys":{"o":[{"t":0,"v":{"x":640.943515,"y":476.167825,"type":"cusp","end":{"x":636.787717,"y":479.345789}}},{"t":280,"v":{"x":639.983406,"y":497.631934,"type":"cusp","start":{"x":635.879672,"y":486.855839},"end":{"x":647.54898,"y":519.138205}}},{"t":1250,"v":{"x":680.656649,"y":564.114455,"type":"cusp","start":{"x":680.684796,"y":564.114703},"end":{"x":681.370716,"y":564.917826}}},{"t":1290,"v":{"x":682.821486,"y":566.536758,"type":"cusp","start":{"x":682.087297,"y":565.724864},"end":{"x":688.843526,"y":574.14889}}},{"t":1570,"v":{"x":703.902082,"y":570.172745,"type":"cusp","start":{"x":696.935592,"y":573.448947},"end":{"x":694.165213,"y":562.355517}}},{"t":2110,"v":{"x":673.423581,"y":538.797221,"type":"cusp","start":{"x":684.838818,"y":551.92018},"end":{"x":513.196228,"y":653.439054}}},{"t":3000,"v":{"x":-880.466322,"y":-581.13678,"type":"cusp","start":{"x":-969.542196,"y":-482.531372}}}]}}}},"s":"MTDA1M2I1NWM5ZWFmVGIFjOWJhZWEzYTlhODVXjNzQ2ZjZhNmE2YTY2WNWM5ZWEzYWM5ZjlkYPWVhM0RhOWE4NWM3NDQZiNjY1Y2EzWGFlOWZETYWM5YmFlYTNhOWE4JYWQ1Yzc0NmI2NjVjYFTBhM2E2YTY1Yzc0NmMI2NjVjOWJIYTZhZTlVmYWNhODliYWU5ZjVjENzRhMDliYTZhZDlmNAjY1Y2FkYWE5ZjlmOWIU1Yzc0NmJiNw|"}],"options":"MTDAxMDg4MmY4MDgxNmNU3ZjgxMmY0NzJmWDcU5N2M2ZUU3MTJmOGE/B"},'__SVGATOR_PLAYER__',window)]]></script></svg>