<svg width="883" height="75" viewBox="0 0 883 75" fill="none" xmlns="http://www.w3.org/2000/svg" style="">
<mask id="path-1-outside-1" maskUnits="userSpaceOnUse" x="0.907288" y="0.720001" width="882" height="74" fill="black">
<path fill="white" width="882" height="74" d="M0.907288 0.720001 L882.907288 0.720001 L882.907288 74.720001 L0.907288 74.720001 Z" class="xpFzXlef_0"></path>
<path d="M30.2753 4.816V10.144H8.45929V27.064H26.1713V32.392H8.45929V55H1.90729V4.816H30.2753Z" class="xpFzXlef_1"></path>
<path d="M44.7405 21.952C45.8925 19.696 47.5245 17.944 49.6365 16.696C51.7965 15.448 54.4125 14.824 57.4845 14.824V21.592H55.7565C48.4125 21.592 44.7405 25.576 44.7405 33.544V55H38.1885V15.544H44.7405V21.952Z" class="xpFzXlef_2"></path>
<path d="M82.2559 55.648C78.5599 55.648 75.1999 54.808 72.1759 53.128C69.1999 51.448 66.8479 49.072 65.1199 46C63.4399 42.88 62.5999 39.28 62.5999 35.2C62.5999 31.168 63.4639 27.616 65.1919 24.544C66.9679 21.424 69.3679 19.048 72.3919 17.416C75.4159 15.736 78.7999 14.896 82.5439 14.896C86.2879 14.896 89.6719 15.736 92.6959 17.416C95.7199 19.048 98.0959 21.4 99.8239 24.472C101.6 27.544 102.488 31.12 102.488 35.2C102.488 39.28 101.576 42.88 99.7519 46C97.9759 49.072 95.5519 51.448 92.4799 53.128C89.4079 54.808 85.9999 55.648 82.2559 55.648ZM82.2559 49.888C84.6079 49.888 86.8159 49.336 88.8799 48.232C90.9439 47.128 92.5999 45.472 93.8479 43.264C95.1439 41.056 95.7919 38.368 95.7919 35.2C95.7919 32.032 95.1679 29.344 93.9199 27.136C92.6719 24.928 91.0399 23.296 89.0239 22.24C87.0079 21.136 84.8239 20.584 82.4719 20.584C80.0719 20.584 77.8639 21.136 75.8479 22.24C73.8799 23.296 72.2959 24.928 71.0959 27.136C69.8959 29.344 69.2959 32.032 69.2959 35.2C69.2959 38.416 69.8719 41.128 71.0239 43.336C72.2239 45.544 73.8079 47.2 75.7759 48.304C77.7439 49.36 79.9039 49.888 82.2559 49.888Z" class="xpFzXlef_3"></path>
<path d="M130.327 14.824C135.127 14.824 139.015 16.288 141.991 19.216C144.967 22.096 146.455 26.272 146.455 31.744V55H139.975V32.68C139.975 28.744 138.991 25.744 137.023 23.68C135.055 21.568 132.367 20.512 128.959 20.512C125.503 20.512 122.743 21.592 120.679 23.752C118.663 25.912 117.655 29.056 117.655 33.184V55H111.103V15.544H117.655V21.16C118.951 19.144 120.703 17.584 122.911 16.48C125.167 15.376 127.639 14.824 130.327 14.824Z" class="xpFzXlef_4"></path>
<path d="M165.149 20.944V44.2C165.149 46.12 165.557 47.488 166.373 48.304C167.189 49.072 168.605 49.456 170.621 49.456H175.445V55H169.541C165.893 55 163.157 54.16 161.333 52.48C159.509 50.8 158.597 48.04 158.597 44.2V20.944H153.485V15.544H158.597V5.608H165.149V15.544H175.445V20.944H165.149Z" class="xpFzXlef_5"></path>
<path d="M219.384 33.76C219.384 35.008 219.312 36.328 219.168 37.72H187.632C187.872 41.608 189.192 44.656 191.592 46.864C194.04 49.024 196.992 50.104 200.448 50.104C203.28 50.104 205.632 49.456 207.504 48.16C209.424 46.816 210.768 45.04 211.536 42.832H218.592C217.536 46.624 215.424 49.72 212.256 52.12C209.088 54.472 205.152 55.648 200.448 55.648C196.704 55.648 193.344 54.808 190.368 53.128C187.44 51.448 185.136 49.072 183.456 46C181.776 42.88 180.936 39.28 180.936 35.2C180.936 31.12 181.752 27.544 183.384 24.472C185.016 21.4 187.296 19.048 190.224 17.416C193.2 15.736 196.608 14.896 200.448 14.896C204.192 14.896 207.504 15.712 210.384 17.344C213.264 18.976 215.472 21.232 217.008 24.112C218.592 26.944 219.384 30.16 219.384 33.76ZM212.616 32.392C212.616 29.896 212.064 27.76 210.96 25.984C209.856 24.16 208.344 22.792 206.424 21.88C204.552 20.92 202.464 20.44 200.16 20.44C196.848 20.44 194.016 21.496 191.664 23.608C189.36 25.72 188.04 28.648 187.704 32.392H212.616Z" class="xpFzXlef_6"></path>
<path d="M247.256 14.824C252.056 14.824 255.944 16.288 258.92 19.216C261.896 22.096 263.384 26.272 263.384 31.744V55H256.904V32.68C256.904 28.744 255.92 25.744 253.952 23.68C251.984 21.568 249.296 20.512 245.888 20.512C242.432 20.512 239.672 21.592 237.608 23.752C235.592 25.912 234.584 29.056 234.584 33.184V55H228.032V15.544H234.584V21.16C235.88 19.144 237.632 17.584 239.84 16.48C242.096 15.376 244.568 14.824 247.256 14.824Z" class="xpFzXlef_7"></path>
<path d="M271.639 35.128C271.639 31.096 272.455 27.568 274.087 24.544C275.719 21.472 277.951 19.096 280.783 17.416C283.663 15.736 286.879 14.896 290.431 14.896C293.503 14.896 296.359 15.616 298.999 17.056C301.639 18.448 303.655 20.296 305.047 22.6V1.72H311.671V55H305.047V47.584C303.751 49.936 301.831 51.88 299.287 53.416C296.743 54.904 293.767 55.648 290.359 55.648C286.855 55.648 283.663 54.784 280.783 53.056C277.951 51.328 275.719 48.904 274.087 45.784C272.455 42.664 271.639 39.112 271.639 35.128ZM305.047 35.2C305.047 32.224 304.447 29.632 303.247 27.424C302.047 25.216 300.415 23.536 298.351 22.384C296.335 21.184 294.103 20.584 291.655 20.584C289.207 20.584 286.975 21.16 284.959 22.312C282.943 23.464 281.335 25.144 280.135 27.352C278.935 29.56 278.335 32.152 278.335 35.128C278.335 38.152 278.935 40.792 280.135 43.048C281.335 45.256 282.943 46.96 284.959 48.16C286.975 49.312 289.207 49.888 291.655 49.888C294.103 49.888 296.335 49.312 298.351 48.16C300.415 46.96 302.047 45.256 303.247 43.048C304.447 40.792 305.047 38.176 305.047 35.2Z" class="xpFzXlef_8"></path>
<path d="M405.011 4.816L390.467 55H383.123L371.459 14.608L359.363 55L352.091 55.072L338.051 4.816H345.035L355.979 47.368L368.075 4.816H375.419L386.939 47.224L397.955 4.816H405.011Z" class="xpFzXlef_9"></path>
<path d="M448.181 33.76C448.181 35.008 448.109 36.328 447.965 37.72H416.429C416.669 41.608 417.989 44.656 420.389 46.864C422.837 49.024 425.789 50.104 429.245 50.104C432.077 50.104 434.429 49.456 436.301 48.16C438.221 46.816 439.565 45.04 440.333 42.832H447.389C446.333 46.624 444.221 49.72 441.053 52.12C437.885 54.472 433.949 55.648 429.245 55.648C425.501 55.648 422.141 54.808 419.165 53.128C416.237 51.448 413.933 49.072 412.253 46C410.573 42.88 409.733 39.28 409.733 35.2C409.733 31.12 410.549 27.544 412.181 24.472C413.813 21.4 416.093 19.048 419.021 17.416C421.997 15.736 425.405 14.896 429.245 14.896C432.989 14.896 436.301 15.712 439.181 17.344C442.061 18.976 444.269 21.232 445.805 24.112C447.389 26.944 448.181 30.16 448.181 33.76ZM441.413 32.392C441.413 29.896 440.861 27.76 439.757 25.984C438.653 24.16 437.141 22.792 435.221 21.88C433.349 20.92 431.261 20.44 428.957 20.44C425.645 20.44 422.813 21.496 420.461 23.608C418.157 25.72 416.837 28.648 416.501 32.392H441.413Z" class="xpFzXlef_10"></path>
<path d="M463.381 22.888C464.725 20.536 466.693 18.616 469.285 17.128C471.877 15.64 474.829 14.896 478.141 14.896C481.693 14.896 484.885 15.736 487.717 17.416C490.549 19.096 492.781 21.472 494.413 24.544C496.045 27.568 496.861 31.096 496.861 35.128C496.861 39.112 496.045 42.664 494.413 45.784C492.781 48.904 490.525 51.328 487.645 53.056C484.813 54.784 481.645 55.648 478.141 55.648C474.733 55.648 471.733 54.904 469.141 53.416C466.597 51.928 464.677 50.032 463.381 47.728V55H456.829V1.72H463.381V22.888ZM490.165 35.128C490.165 32.152 489.565 29.56 488.365 27.352C487.165 25.144 485.533 23.464 483.469 22.312C481.453 21.16 479.221 20.584 476.773 20.584C474.373 20.584 472.141 21.184 470.077 22.384C468.061 23.536 466.429 25.24 465.181 27.496C463.981 29.704 463.381 32.272 463.381 35.2C463.381 38.176 463.981 40.792 465.181 43.048C466.429 45.256 468.061 46.96 470.077 48.16C472.141 49.312 474.373 49.888 476.773 49.888C479.221 49.888 481.453 49.312 483.469 48.16C485.533 46.96 487.165 45.256 488.365 43.048C489.565 40.792 490.165 38.152 490.165 35.128Z" class="xpFzXlef_11"></path>
<path d="M540.305 4.816C545.777 4.816 550.505 5.848 554.489 7.912C558.521 9.928 561.593 12.832 563.705 16.624C565.865 20.416 566.945 24.88 566.945 30.016C566.945 35.152 565.865 39.616 563.705 43.408C561.593 47.152 558.521 50.032 554.489 52.048C550.505 54.016 545.777 55 540.305 55H524.681V4.816H540.305ZM540.305 49.6C546.785 49.6 551.729 47.896 555.137 44.488C558.545 41.032 560.249 36.208 560.249 30.016C560.249 23.776 558.521 18.904 555.065 15.4C551.657 11.896 546.737 10.144 540.305 10.144H531.233V49.6H540.305Z" class="xpFzXlef_12"></path>
<path d="M611.587 33.76C611.587 35.008 611.515 36.328 611.371 37.72H579.835C580.075 41.608 581.395 44.656 583.795 46.864C586.243 49.024 589.195 50.104 592.651 50.104C595.483 50.104 597.835 49.456 599.707 48.16C601.627 46.816 602.971 45.04 603.739 42.832H610.795C609.739 46.624 607.627 49.72 604.459 52.12C601.291 54.472 597.355 55.648 592.651 55.648C588.907 55.648 585.547 54.808 582.571 53.128C579.643 51.448 577.339 49.072 575.659 46C573.979 42.88 573.139 39.28 573.139 35.2C573.139 31.12 573.955 27.544 575.587 24.472C577.219 21.4 579.499 19.048 582.427 17.416C585.403 15.736 588.811 14.896 592.651 14.896C596.395 14.896 599.707 15.712 602.587 17.344C605.467 18.976 607.675 21.232 609.211 24.112C610.795 26.944 611.587 30.16 611.587 33.76ZM604.819 32.392C604.819 29.896 604.267 27.76 603.163 25.984C602.059 24.16 600.547 22.792 598.627 21.88C596.755 20.92 594.667 20.44 592.363 20.44C589.051 20.44 586.219 21.496 583.867 23.608C581.563 25.72 580.243 28.648 579.907 32.392H604.819Z" class="xpFzXlef_13"></path>
<path d="M634.923 48.952L647.163 15.544H654.147L638.667 55H631.035L615.555 15.544H622.611L634.923 48.952Z" class="xpFzXlef_14"></path>
<path d="M696.595 33.76C696.595 35.008 696.523 36.328 696.379 37.72H664.843C665.083 41.608 666.403 44.656 668.803 46.864C671.251 49.024 674.203 50.104 677.659 50.104C680.491 50.104 682.843 49.456 684.715 48.16C686.635 46.816 687.979 45.04 688.747 42.832H695.803C694.747 46.624 692.635 49.72 689.467 52.12C686.299 54.472 682.363 55.648 677.659 55.648C673.915 55.648 670.555 54.808 667.579 53.128C664.651 51.448 662.347 49.072 660.667 46C658.987 42.88 658.147 39.28 658.147 35.2C658.147 31.12 658.963 27.544 660.595 24.472C662.227 21.4 664.507 19.048 667.435 17.416C670.411 15.736 673.819 14.896 677.659 14.896C681.403 14.896 684.715 15.712 687.595 17.344C690.475 18.976 692.683 21.232 694.219 24.112C695.803 26.944 696.595 30.16 696.595 33.76ZM689.827 32.392C689.827 29.896 689.275 27.76 688.171 25.984C687.067 24.16 685.555 22.792 683.635 21.88C681.763 20.92 679.675 20.44 677.371 20.44C674.059 20.44 671.227 21.496 668.875 23.608C666.571 25.72 665.251 28.648 664.915 32.392H689.827Z" class="xpFzXlef_15"></path>
<path d="M711.795 1.72V55H705.243V1.72H711.795Z" class="xpFzXlef_16"></path>
<path d="M740.17 55.648C736.474 55.648 733.114 54.808 730.09 53.128C727.114 51.448 724.762 49.072 723.034 46C721.354 42.88 720.514 39.28 720.514 35.2C720.514 31.168 721.378 27.616 723.106 24.544C724.882 21.424 727.282 19.048 730.306 17.416C733.33 15.736 736.714 14.896 740.458 14.896C744.202 14.896 747.586 15.736 750.61 17.416C753.634 19.048 756.01 21.4 757.738 24.472C759.514 27.544 760.402 31.12 760.402 35.2C760.402 39.28 759.49 42.88 757.666 46C755.89 49.072 753.466 51.448 750.394 53.128C747.322 54.808 743.914 55.648 740.17 55.648ZM740.17 49.888C742.522 49.888 744.73 49.336 746.794 48.232C748.858 47.128 750.514 45.472 751.762 43.264C753.058 41.056 753.706 38.368 753.706 35.2C753.706 32.032 753.082 29.344 751.834 27.136C750.586 24.928 748.954 23.296 746.938 22.24C744.922 21.136 742.738 20.584 740.386 20.584C737.986 20.584 735.778 21.136 733.762 22.24C731.794 23.296 730.21 24.928 729.01 27.136C727.81 29.344 727.21 32.032 727.21 35.2C727.21 38.416 727.786 41.128 728.938 43.336C730.138 45.544 731.722 47.2 733.69 48.304C735.658 49.36 737.818 49.888 740.17 49.888Z" class="xpFzXlef_17"></path>
<path d="M775.569 22.816C776.865 20.56 778.785 18.688 781.329 17.2C783.921 15.664 786.921 14.896 790.329 14.896C793.833 14.896 797.001 15.736 799.833 17.416C802.713 19.096 804.969 21.472 806.601 24.544C808.233 27.568 809.049 31.096 809.049 35.128C809.049 39.112 808.233 42.664 806.601 45.784C804.969 48.904 802.713 51.328 799.833 53.056C797.001 54.784 793.833 55.648 790.329 55.648C786.969 55.648 783.993 54.904 781.401 53.416C778.857 51.88 776.913 49.984 775.569 47.728V73.72H769.017V15.544H775.569V22.816ZM802.353 35.128C802.353 32.152 801.753 29.56 800.553 27.352C799.353 25.144 797.721 23.464 795.657 22.312C793.641 21.16 791.409 20.584 788.961 20.584C786.561 20.584 784.329 21.184 782.265 22.384C780.249 23.536 778.617 25.24 777.369 27.496C776.169 29.704 775.569 32.272 775.569 35.2C775.569 38.176 776.169 40.792 777.369 43.048C778.617 45.256 780.249 46.96 782.265 48.16C784.329 49.312 786.561 49.888 788.961 49.888C791.409 49.888 793.641 49.312 795.657 48.16C797.721 46.96 799.353 45.256 800.553 43.048C801.753 40.792 802.353 38.152 802.353 35.128Z" class="xpFzXlef_18"></path>
<path d="M853.673 33.76C853.673 35.008 853.601 36.328 853.457 37.72H821.921C822.161 41.608 823.481 44.656 825.881 46.864C828.329 49.024 831.281 50.104 834.737 50.104C837.569 50.104 839.921 49.456 841.793 48.16C843.713 46.816 845.057 45.04 845.825 42.832H852.881C851.825 46.624 849.713 49.72 846.545 52.12C843.377 54.472 839.441 55.648 834.737 55.648C830.993 55.648 827.633 54.808 824.657 53.128C821.729 51.448 819.425 49.072 817.745 46C816.065 42.88 815.225 39.28 815.225 35.2C815.225 31.12 816.041 27.544 817.673 24.472C819.305 21.4 821.585 19.048 824.513 17.416C827.489 15.736 830.897 14.896 834.737 14.896C838.481 14.896 841.793 15.712 844.673 17.344C847.553 18.976 849.761 21.232 851.297 24.112C852.881 26.944 853.673 30.16 853.673 33.76ZM846.905 32.392C846.905 29.896 846.353 27.76 845.249 25.984C844.145 24.16 842.633 22.792 840.713 21.88C838.841 20.92 836.753 20.44 834.449 20.44C831.137 20.44 828.305 21.496 825.953 23.608C823.649 25.72 822.329 28.648 821.993 32.392H846.905Z" class="xpFzXlef_19"></path>
<path d="M868.873 21.952C870.025 19.696 871.657 17.944 873.769 16.696C875.929 15.448 878.545 14.824 881.617 14.824V21.592H879.889C872.545 21.592 868.873 25.576 868.873 33.544V55H862.321V15.544H868.873V21.952Z" class="xpFzXlef_20"></path>
</mask>
<path d="M30.2753 4.816V10.144H8.45929V27.064H26.1713V32.392H8.45929V55H1.90729V4.816H30.2753Z" stroke="white" stroke-width="2" mask="url(#path-1-outside-1)" class="xpFzXlef_21"></path>
<path d="M44.7405 21.952C45.8925 19.696 47.5245 17.944 49.6365 16.696C51.7965 15.448 54.4125 14.824 57.4845 14.824V21.592H55.7565C48.4125 21.592 44.7405 25.576 44.7405 33.544V55H38.1885V15.544H44.7405V21.952Z" stroke="white" stroke-width="2" mask="url(#path-1-outside-1)" class="xpFzXlef_22"></path>
<path d="M82.2559 55.648C78.5599 55.648 75.1999 54.808 72.1759 53.128C69.1999 51.448 66.8479 49.072 65.1199 46C63.4399 42.88 62.5999 39.28 62.5999 35.2C62.5999 31.168 63.4639 27.616 65.1919 24.544C66.9679 21.424 69.3679 19.048 72.3919 17.416C75.4159 15.736 78.7999 14.896 82.5439 14.896C86.2879 14.896 89.6719 15.736 92.6959 17.416C95.7199 19.048 98.0959 21.4 99.8239 24.472C101.6 27.544 102.488 31.12 102.488 35.2C102.488 39.28 101.576 42.88 99.7519 46C97.9759 49.072 95.5519 51.448 92.4799 53.128C89.4079 54.808 85.9999 55.648 82.2559 55.648ZM82.2559 49.888C84.6079 49.888 86.8159 49.336 88.8799 48.232C90.9439 47.128 92.5999 45.472 93.8479 43.264C95.1439 41.056 95.7919 38.368 95.7919 35.2C95.7919 32.032 95.1679 29.344 93.9199 27.136C92.6719 24.928 91.0399 23.296 89.0239 22.24C87.0079 21.136 84.8239 20.584 82.4719 20.584C80.0719 20.584 77.8639 21.136 75.8479 22.24C73.8799 23.296 72.2959 24.928 71.0959 27.136C69.8959 29.344 69.2959 32.032 69.2959 35.2C69.2959 38.416 69.8719 41.128 71.0239 43.336C72.2239 45.544 73.8079 47.2 75.7759 48.304C77.7439 49.36 79.9039 49.888 82.2559 49.888Z" stroke="white" stroke-width="2" mask="url(#path-1-outside-1)" class="xpFzXlef_23"></path>
<path d="M130.327 14.824C135.127 14.824 139.015 16.288 141.991 19.216C144.967 22.096 146.455 26.272 146.455 31.744V55H139.975V32.68C139.975 28.744 138.991 25.744 137.023 23.68C135.055 21.568 132.367 20.512 128.959 20.512C125.503 20.512 122.743 21.592 120.679 23.752C118.663 25.912 117.655 29.056 117.655 33.184V55H111.103V15.544H117.655V21.16C118.951 19.144 120.703 17.584 122.911 16.48C125.167 15.376 127.639 14.824 130.327 14.824Z" stroke="white" stroke-width="2" mask="url(#path-1-outside-1)" class="xpFzXlef_24"></path>
<path d="M165.149 20.944V44.2C165.149 46.12 165.557 47.488 166.373 48.304C167.189 49.072 168.605 49.456 170.621 49.456H175.445V55H169.541C165.893 55 163.157 54.16 161.333 52.48C159.509 50.8 158.597 48.04 158.597 44.2V20.944H153.485V15.544H158.597V5.608H165.149V15.544H175.445V20.944H165.149Z" stroke="white" stroke-width="2" mask="url(#path-1-outside-1)" class="xpFzXlef_25"></path>
<path d="M219.384 33.76C219.384 35.008 219.312 36.328 219.168 37.72H187.632C187.872 41.608 189.192 44.656 191.592 46.864C194.04 49.024 196.992 50.104 200.448 50.104C203.28 50.104 205.632 49.456 207.504 48.16C209.424 46.816 210.768 45.04 211.536 42.832H218.592C217.536 46.624 215.424 49.72 212.256 52.12C209.088 54.472 205.152 55.648 200.448 55.648C196.704 55.648 193.344 54.808 190.368 53.128C187.44 51.448 185.136 49.072 183.456 46C181.776 42.88 180.936 39.28 180.936 35.2C180.936 31.12 181.752 27.544 183.384 24.472C185.016 21.4 187.296 19.048 190.224 17.416C193.2 15.736 196.608 14.896 200.448 14.896C204.192 14.896 207.504 15.712 210.384 17.344C213.264 18.976 215.472 21.232 217.008 24.112C218.592 26.944 219.384 30.16 219.384 33.76ZM212.616 32.392C212.616 29.896 212.064 27.76 210.96 25.984C209.856 24.16 208.344 22.792 206.424 21.88C204.552 20.92 202.464 20.44 200.16 20.44C196.848 20.44 194.016 21.496 191.664 23.608C189.36 25.72 188.04 28.648 187.704 32.392H212.616Z" stroke="white" stroke-width="2" mask="url(#path-1-outside-1)" class="xpFzXlef_26"></path>
<path d="M247.256 14.824C252.056 14.824 255.944 16.288 258.92 19.216C261.896 22.096 263.384 26.272 263.384 31.744V55H256.904V32.68C256.904 28.744 255.92 25.744 253.952 23.68C251.984 21.568 249.296 20.512 245.888 20.512C242.432 20.512 239.672 21.592 237.608 23.752C235.592 25.912 234.584 29.056 234.584 33.184V55H228.032V15.544H234.584V21.16C235.88 19.144 237.632 17.584 239.84 16.48C242.096 15.376 244.568 14.824 247.256 14.824Z" stroke="white" stroke-width="2" mask="url(#path-1-outside-1)" class="xpFzXlef_27"></path>
<path d="M271.639 35.128C271.639 31.096 272.455 27.568 274.087 24.544C275.719 21.472 277.951 19.096 280.783 17.416C283.663 15.736 286.879 14.896 290.431 14.896C293.503 14.896 296.359 15.616 298.999 17.056C301.639 18.448 303.655 20.296 305.047 22.6V1.72H311.671V55H305.047V47.584C303.751 49.936 301.831 51.88 299.287 53.416C296.743 54.904 293.767 55.648 290.359 55.648C286.855 55.648 283.663 54.784 280.783 53.056C277.951 51.328 275.719 48.904 274.087 45.784C272.455 42.664 271.639 39.112 271.639 35.128ZM305.047 35.2C305.047 32.224 304.447 29.632 303.247 27.424C302.047 25.216 300.415 23.536 298.351 22.384C296.335 21.184 294.103 20.584 291.655 20.584C289.207 20.584 286.975 21.16 284.959 22.312C282.943 23.464 281.335 25.144 280.135 27.352C278.935 29.56 278.335 32.152 278.335 35.128C278.335 38.152 278.935 40.792 280.135 43.048C281.335 45.256 282.943 46.96 284.959 48.16C286.975 49.312 289.207 49.888 291.655 49.888C294.103 49.888 296.335 49.312 298.351 48.16C300.415 46.96 302.047 45.256 303.247 43.048C304.447 40.792 305.047 38.176 305.047 35.2Z" stroke="white" stroke-width="2" mask="url(#path-1-outside-1)" class="xpFzXlef_28"></path>
<path d="M405.011 4.816L390.467 55H383.123L371.459 14.608L359.363 55L352.091 55.072L338.051 4.816H345.035L355.979 47.368L368.075 4.816H375.419L386.939 47.224L397.955 4.816H405.011Z" stroke="white" stroke-width="2" mask="url(#path-1-outside-1)" class="xpFzXlef_29"></path>
<path d="M448.181 33.76C448.181 35.008 448.109 36.328 447.965 37.72H416.429C416.669 41.608 417.989 44.656 420.389 46.864C422.837 49.024 425.789 50.104 429.245 50.104C432.077 50.104 434.429 49.456 436.301 48.16C438.221 46.816 439.565 45.04 440.333 42.832H447.389C446.333 46.624 444.221 49.72 441.053 52.12C437.885 54.472 433.949 55.648 429.245 55.648C425.501 55.648 422.141 54.808 419.165 53.128C416.237 51.448 413.933 49.072 412.253 46C410.573 42.88 409.733 39.28 409.733 35.2C409.733 31.12 410.549 27.544 412.181 24.472C413.813 21.4 416.093 19.048 419.021 17.416C421.997 15.736 425.405 14.896 429.245 14.896C432.989 14.896 436.301 15.712 439.181 17.344C442.061 18.976 444.269 21.232 445.805 24.112C447.389 26.944 448.181 30.16 448.181 33.76ZM441.413 32.392C441.413 29.896 440.861 27.76 439.757 25.984C438.653 24.16 437.141 22.792 435.221 21.88C433.349 20.92 431.261 20.44 428.957 20.44C425.645 20.44 422.813 21.496 420.461 23.608C418.157 25.72 416.837 28.648 416.501 32.392H441.413Z" stroke="white" stroke-width="2" mask="url(#path-1-outside-1)" class="xpFzXlef_30"></path>
<path d="M463.381 22.888C464.725 20.536 466.693 18.616 469.285 17.128C471.877 15.64 474.829 14.896 478.141 14.896C481.693 14.896 484.885 15.736 487.717 17.416C490.549 19.096 492.781 21.472 494.413 24.544C496.045 27.568 496.861 31.096 496.861 35.128C496.861 39.112 496.045 42.664 494.413 45.784C492.781 48.904 490.525 51.328 487.645 53.056C484.813 54.784 481.645 55.648 478.141 55.648C474.733 55.648 471.733 54.904 469.141 53.416C466.597 51.928 464.677 50.032 463.381 47.728V55H456.829V1.72H463.381V22.888ZM490.165 35.128C490.165 32.152 489.565 29.56 488.365 27.352C487.165 25.144 485.533 23.464 483.469 22.312C481.453 21.16 479.221 20.584 476.773 20.584C474.373 20.584 472.141 21.184 470.077 22.384C468.061 23.536 466.429 25.24 465.181 27.496C463.981 29.704 463.381 32.272 463.381 35.2C463.381 38.176 463.981 40.792 465.181 43.048C466.429 45.256 468.061 46.96 470.077 48.16C472.141 49.312 474.373 49.888 476.773 49.888C479.221 49.888 481.453 49.312 483.469 48.16C485.533 46.96 487.165 45.256 488.365 43.048C489.565 40.792 490.165 38.152 490.165 35.128Z" stroke="white" stroke-width="2" mask="url(#path-1-outside-1)" class="xpFzXlef_31"></path>
<path d="M540.305 4.816C545.777 4.816 550.505 5.848 554.489 7.912C558.521 9.928 561.593 12.832 563.705 16.624C565.865 20.416 566.945 24.88 566.945 30.016C566.945 35.152 565.865 39.616 563.705 43.408C561.593 47.152 558.521 50.032 554.489 52.048C550.505 54.016 545.777 55 540.305 55H524.681V4.816H540.305ZM540.305 49.6C546.785 49.6 551.729 47.896 555.137 44.488C558.545 41.032 560.249 36.208 560.249 30.016C560.249 23.776 558.521 18.904 555.065 15.4C551.657 11.896 546.737 10.144 540.305 10.144H531.233V49.6H540.305Z" stroke="white" stroke-width="2" mask="url(#path-1-outside-1)" class="xpFzXlef_32"></path>
<path d="M611.587 33.76C611.587 35.008 611.515 36.328 611.371 37.72H579.835C580.075 41.608 581.395 44.656 583.795 46.864C586.243 49.024 589.195 50.104 592.651 50.104C595.483 50.104 597.835 49.456 599.707 48.16C601.627 46.816 602.971 45.04 603.739 42.832H610.795C609.739 46.624 607.627 49.72 604.459 52.12C601.291 54.472 597.355 55.648 592.651 55.648C588.907 55.648 585.547 54.808 582.571 53.128C579.643 51.448 577.339 49.072 575.659 46C573.979 42.88 573.139 39.28 573.139 35.2C573.139 31.12 573.955 27.544 575.587 24.472C577.219 21.4 579.499 19.048 582.427 17.416C585.403 15.736 588.811 14.896 592.651 14.896C596.395 14.896 599.707 15.712 602.587 17.344C605.467 18.976 607.675 21.232 609.211 24.112C610.795 26.944 611.587 30.16 611.587 33.76ZM604.819 32.392C604.819 29.896 604.267 27.76 603.163 25.984C602.059 24.16 600.547 22.792 598.627 21.88C596.755 20.92 594.667 20.44 592.363 20.44C589.051 20.44 586.219 21.496 583.867 23.608C581.563 25.72 580.243 28.648 579.907 32.392H604.819Z" stroke="white" stroke-width="2" mask="url(#path-1-outside-1)" class="xpFzXlef_33"></path>
<path d="M634.923 48.952L647.163 15.544H654.147L638.667 55H631.035L615.555 15.544H622.611L634.923 48.952Z" stroke="white" stroke-width="2" mask="url(#path-1-outside-1)" class="xpFzXlef_34"></path>
<path d="M696.595 33.76C696.595 35.008 696.523 36.328 696.379 37.72H664.843C665.083 41.608 666.403 44.656 668.803 46.864C671.251 49.024 674.203 50.104 677.659 50.104C680.491 50.104 682.843 49.456 684.715 48.16C686.635 46.816 687.979 45.04 688.747 42.832H695.803C694.747 46.624 692.635 49.72 689.467 52.12C686.299 54.472 682.363 55.648 677.659 55.648C673.915 55.648 670.555 54.808 667.579 53.128C664.651 51.448 662.347 49.072 660.667 46C658.987 42.88 658.147 39.28 658.147 35.2C658.147 31.12 658.963 27.544 660.595 24.472C662.227 21.4 664.507 19.048 667.435 17.416C670.411 15.736 673.819 14.896 677.659 14.896C681.403 14.896 684.715 15.712 687.595 17.344C690.475 18.976 692.683 21.232 694.219 24.112C695.803 26.944 696.595 30.16 696.595 33.76ZM689.827 32.392C689.827 29.896 689.275 27.76 688.171 25.984C687.067 24.16 685.555 22.792 683.635 21.88C681.763 20.92 679.675 20.44 677.371 20.44C674.059 20.44 671.227 21.496 668.875 23.608C666.571 25.72 665.251 28.648 664.915 32.392H689.827Z" stroke="white" stroke-width="2" mask="url(#path-1-outside-1)" class="xpFzXlef_35"></path>
<path d="M711.795 1.72V55H705.243V1.72H711.795Z" stroke="white" stroke-width="2" mask="url(#path-1-outside-1)" class="xpFzXlef_36"></path>
<path d="M740.17 55.648C736.474 55.648 733.114 54.808 730.09 53.128C727.114 51.448 724.762 49.072 723.034 46C721.354 42.88 720.514 39.28 720.514 35.2C720.514 31.168 721.378 27.616 723.106 24.544C724.882 21.424 727.282 19.048 730.306 17.416C733.33 15.736 736.714 14.896 740.458 14.896C744.202 14.896 747.586 15.736 750.61 17.416C753.634 19.048 756.01 21.4 757.738 24.472C759.514 27.544 760.402 31.12 760.402 35.2C760.402 39.28 759.49 42.88 757.666 46C755.89 49.072 753.466 51.448 750.394 53.128C747.322 54.808 743.914 55.648 740.17 55.648ZM740.17 49.888C742.522 49.888 744.73 49.336 746.794 48.232C748.858 47.128 750.514 45.472 751.762 43.264C753.058 41.056 753.706 38.368 753.706 35.2C753.706 32.032 753.082 29.344 751.834 27.136C750.586 24.928 748.954 23.296 746.938 22.24C744.922 21.136 742.738 20.584 740.386 20.584C737.986 20.584 735.778 21.136 733.762 22.24C731.794 23.296 730.21 24.928 729.01 27.136C727.81 29.344 727.21 32.032 727.21 35.2C727.21 38.416 727.786 41.128 728.938 43.336C730.138 45.544 731.722 47.2 733.69 48.304C735.658 49.36 737.818 49.888 740.17 49.888Z" stroke="white" stroke-width="2" mask="url(#path-1-outside-1)" class="xpFzXlef_37"></path>
<path d="M775.569 22.816C776.865 20.56 778.785 18.688 781.329 17.2C783.921 15.664 786.921 14.896 790.329 14.896C793.833 14.896 797.001 15.736 799.833 17.416C802.713 19.096 804.969 21.472 806.601 24.544C808.233 27.568 809.049 31.096 809.049 35.128C809.049 39.112 808.233 42.664 806.601 45.784C804.969 48.904 802.713 51.328 799.833 53.056C797.001 54.784 793.833 55.648 790.329 55.648C786.969 55.648 783.993 54.904 781.401 53.416C778.857 51.88 776.913 49.984 775.569 47.728V73.72H769.017V15.544H775.569V22.816ZM802.353 35.128C802.353 32.152 801.753 29.56 800.553 27.352C799.353 25.144 797.721 23.464 795.657 22.312C793.641 21.16 791.409 20.584 788.961 20.584C786.561 20.584 784.329 21.184 782.265 22.384C780.249 23.536 778.617 25.24 777.369 27.496C776.169 29.704 775.569 32.272 775.569 35.2C775.569 38.176 776.169 40.792 777.369 43.048C778.617 45.256 780.249 46.96 782.265 48.16C784.329 49.312 786.561 49.888 788.961 49.888C791.409 49.888 793.641 49.312 795.657 48.16C797.721 46.96 799.353 45.256 800.553 43.048C801.753 40.792 802.353 38.152 802.353 35.128Z" stroke="white" stroke-width="2" mask="url(#path-1-outside-1)" class="xpFzXlef_38"></path>
<path d="M853.673 33.76C853.673 35.008 853.601 36.328 853.457 37.72H821.921C822.161 41.608 823.481 44.656 825.881 46.864C828.329 49.024 831.281 50.104 834.737 50.104C837.569 50.104 839.921 49.456 841.793 48.16C843.713 46.816 845.057 45.04 845.825 42.832H852.881C851.825 46.624 849.713 49.72 846.545 52.12C843.377 54.472 839.441 55.648 834.737 55.648C830.993 55.648 827.633 54.808 824.657 53.128C821.729 51.448 819.425 49.072 817.745 46C816.065 42.88 815.225 39.28 815.225 35.2C815.225 31.12 816.041 27.544 817.673 24.472C819.305 21.4 821.585 19.048 824.513 17.416C827.489 15.736 830.897 14.896 834.737 14.896C838.481 14.896 841.793 15.712 844.673 17.344C847.553 18.976 849.761 21.232 851.297 24.112C852.881 26.944 853.673 30.16 853.673 33.76ZM846.905 32.392C846.905 29.896 846.353 27.76 845.249 25.984C844.145 24.16 842.633 22.792 840.713 21.88C838.841 20.92 836.753 20.44 834.449 20.44C831.137 20.44 828.305 21.496 825.953 23.608C823.649 25.72 822.329 28.648 821.993 32.392H846.905Z" stroke="white" stroke-width="2" mask="url(#path-1-outside-1)" class="xpFzXlef_39"></path>
<path d="M868.873 21.952C870.025 19.696 871.657 17.944 873.769 16.696C875.929 15.448 878.545 14.824 881.617 14.824V21.592H879.889C872.545 21.592 868.873 25.576 868.873 33.544V55H862.321V15.544H868.873V21.952Z" stroke="white" stroke-width="2" mask="url(#path-1-outside-1)" class="xpFzXlef_40"></path>
<style data-made-with="vivus-instant">.xpFzXlef_0{stroke-dasharray:1912 1914;stroke-dashoffset:1913;animation:xpFzXlef_draw 2000ms linear 0ms forwards;}.xpFzXlef_1{stroke-dasharray:193 195;stroke-dashoffset:194;animation:xpFzXlef_draw 2000ms linear 25ms forwards;}.xpFzXlef_2{stroke-dasharray:124 126;stroke-dashoffset:125;animation:xpFzXlef_draw 2000ms linear 50ms forwards;}.xpFzXlef_3{stroke-dasharray:217 219;stroke-dashoffset:218;animation:xpFzXlef_draw 2000ms linear 75ms forwards;}.xpFzXlef_4{stroke-dasharray:212 214;stroke-dashoffset:213;animation:xpFzXlef_draw 2000ms linear 100ms forwards;}.xpFzXlef_5{stroke-dasharray:158 160;stroke-dashoffset:159;animation:xpFzXlef_draw 2000ms linear 125ms forwards;}.xpFzXlef_6{stroke-dasharray:258 260;stroke-dashoffset:259;animation:xpFzXlef_draw 2000ms linear 150ms forwards;}.xpFzXlef_7{stroke-dasharray:212 214;stroke-dashoffset:213;animation:xpFzXlef_draw 2000ms linear 175ms forwards;}.xpFzXlef_8{stroke-dasharray:281 283;stroke-dashoffset:282;animation:xpFzXlef_draw 2000ms linear 200ms forwards;}.xpFzXlef_9{stroke-dasharray:401 403;stroke-dashoffset:402;animation:xpFzXlef_draw 2000ms linear 225ms forwards;}.xpFzXlef_10{stroke-dasharray:258 260;stroke-dashoffset:259;animation:xpFzXlef_draw 2000ms linear 250ms forwards;}.xpFzXlef_11{stroke-dasharray:282 284;stroke-dashoffset:283;animation:xpFzXlef_draw 2000ms linear 275ms forwards;}.xpFzXlef_12{stroke-dasharray:286 288;stroke-dashoffset:287;animation:xpFzXlef_draw 2000ms linear 300ms forwards;}.xpFzXlef_13{stroke-dasharray:258 260;stroke-dashoffset:259;animation:xpFzXlef_draw 2000ms linear 325ms forwards;}.xpFzXlef_14{stroke-dasharray:178 180;stroke-dashoffset:179;animation:xpFzXlef_draw 2000ms linear 350ms forwards;}.xpFzXlef_15{stroke-dasharray:258 260;stroke-dashoffset:259;animation:xpFzXlef_draw 2000ms linear 375ms forwards;}.xpFzXlef_16{stroke-dasharray:120 122;stroke-dashoffset:121;animation:xpFzXlef_draw 2000ms linear 400ms forwards;}.xpFzXlef_17{stroke-dasharray:217 219;stroke-dashoffset:218;animation:xpFzXlef_draw 2000ms linear 425ms forwards;}.xpFzXlef_18{stroke-dasharray:291 293;stroke-dashoffset:292;animation:xpFzXlef_draw 2000ms linear 450ms forwards;}.xpFzXlef_19{stroke-dasharray:258 260;stroke-dashoffset:259;animation:xpFzXlef_draw 2000ms linear 475ms forwards;}.xpFzXlef_20{stroke-dasharray:124 126;stroke-dashoffset:125;animation:xpFzXlef_draw 2000ms linear 500ms forwards;}.xpFzXlef_21{stroke-dasharray:193 195;stroke-dashoffset:194;animation:xpFzXlef_draw 2000ms linear 525ms forwards;}.xpFzXlef_22{stroke-dasharray:124 126;stroke-dashoffset:125;animation:xpFzXlef_draw 2000ms linear 550ms forwards;}.xpFzXlef_23{stroke-dasharray:217 219;stroke-dashoffset:218;animation:xpFzXlef_draw 2000ms linear 575ms forwards;}.xpFzXlef_24{stroke-dasharray:212 214;stroke-dashoffset:213;animation:xpFzXlef_draw 2000ms linear 600ms forwards;}.xpFzXlef_25{stroke-dasharray:158 160;stroke-dashoffset:159;animation:xpFzXlef_draw 2000ms linear 625ms forwards;}.xpFzXlef_26{stroke-dasharray:258 260;stroke-dashoffset:259;animation:xpFzXlef_draw 2000ms linear 650ms forwards;}.xpFzXlef_27{stroke-dasharray:212 214;stroke-dashoffset:213;animation:xpFzXlef_draw 2000ms linear 675ms forwards;}.xpFzXlef_28{stroke-dasharray:281 283;stroke-dashoffset:282;animation:xpFzXlef_draw 2000ms linear 700ms forwards;}.xpFzXlef_29{stroke-dasharray:401 403;stroke-dashoffset:402;animation:xpFzXlef_draw 2000ms linear 725ms forwards;}.xpFzXlef_30{stroke-dasharray:258 260;stroke-dashoffset:259;animation:xpFzXlef_draw 2000ms linear 750ms forwards;}.xpFzXlef_31{stroke-dasharray:282 284;stroke-dashoffset:283;animation:xpFzXlef_draw 2000ms linear 775ms forwards;}.xpFzXlef_32{stroke-dasharray:286 288;stroke-dashoffset:287;animation:xpFzXlef_draw 2000ms linear 800ms forwards;}.xpFzXlef_33{stroke-dasharray:258 260;stroke-dashoffset:259;animation:xpFzXlef_draw 2000ms linear 825ms forwards;}.xpFzXlef_34{stroke-dasharray:178 180;stroke-dashoffset:179;animation:xpFzXlef_draw 2000ms linear 850ms forwards;}.xpFzXlef_35{stroke-dasharray:258 260;stroke-dashoffset:259;animation:xpFzXlef_draw 2000ms linear 875ms forwards;}.xpFzXlef_36{stroke-dasharray:120 122;stroke-dashoffset:121;animation:xpFzXlef_draw 2000ms linear 900ms forwards;}.xpFzXlef_37{stroke-dasharray:217 219;stroke-dashoffset:218;animation:xpFzXlef_draw 2000ms linear 925ms forwards;}.xpFzXlef_38{stroke-dasharray:291 293;stroke-dashoffset:292;animation:xpFzXlef_draw 2000ms linear 950ms forwards;}.xpFzXlef_39{stroke-dasharray:258 260;stroke-dashoffset:259;animation:xpFzXlef_draw 2000ms linear 975ms forwards;}.xpFzXlef_40{stroke-dasharray:124 126;stroke-dashoffset:125;animation:xpFzXlef_draw 2000ms linear 1000ms forwards;}@keyframes xpFzXlef_draw{100%{stroke-dashoffset:0;}}@keyframes xpFzXlef_fade{0%{stroke-opacity:1;}94.44444444444444%{stroke-opacity:1;}100%{stroke-opacity:0;}}</style></svg>
